<svg width="38" height="45" viewBox="0 0 38 45" fill="none" xmlns="http://www.w3.org/2000/svg">
<circle cx="19" cy="23" r="19" fill="#644AE9"/>
<path d="M19.12 33.21C17.72 33.21 16.46 32.97 15.34 32.49C14.22 31.99 13.34 31.29 12.7 30.39C12.06 29.49 11.74 28.44 11.74 27.24H15.4C15.48 28.14 15.83 28.88 16.45 29.46C17.09 30.04 17.98 30.33 19.12 30.33C20.3 30.33 21.22 30.05 21.88 29.49C22.54 28.91 22.87 28.17 22.87 27.27C22.87 26.57 22.66 26 22.24 25.56C21.84 25.12 21.33 24.78 20.71 24.54C20.11 24.3 19.27 24.04 18.19 23.76C16.83 23.4 15.72 23.04 14.86 22.68C14.02 22.3 13.3 21.72 12.7 20.94C12.1 20.16 11.8 19.12 11.8 17.82C11.8 16.62 12.1 15.57 12.7 14.67C13.3 13.77 14.14 13.08 15.22 12.6C16.3 12.12 17.55 11.88 18.97 11.88C20.99 11.88 22.64 12.39 23.92 13.41C25.22 14.41 25.94 15.79 26.08 17.55H22.3C22.24 16.79 21.88 16.14 21.22 15.6C20.56 15.06 19.69 14.79 18.61 14.79C17.63 14.79 16.83 15.04 16.21 15.54C15.59 16.04 15.28 16.76 15.28 17.7C15.28 18.34 15.47 18.87 15.85 19.29C16.25 19.69 16.75 20.01 17.35 20.25C17.95 20.49 18.77 20.75 19.81 21.03C21.19 21.41 22.31 21.79 23.17 22.17C24.05 22.55 24.79 23.14 25.39 23.94C26.01 24.72 26.32 25.77 26.32 27.09C26.32 28.15 26.03 29.15 25.45 30.09C24.89 31.03 24.06 31.79 22.96 32.37C21.88 32.93 20.6 33.21 19.12 33.21Z" fill="white"/>
</svg>
