<svg width="74" height="74" viewBox="0 0 74 74" fill="none" xmlns="http://www.w3.org/2000/svg">
<rect width="74" height="74" rx="37" fill="#EEF5FF"/>
<path d="M47.8366 30.6513H43.605C42.7762 30.6513 42.1039 31.3236 42.1039 32.1524C42.1039 32.9812 42.7762 33.6535 43.605 33.6535H47.8366C49.9059 33.6535 51.5896 35.3373 51.5896 37.4065V44.6199C51.5896 46.6891 49.9059 48.3729 47.8366 48.3729H26.7552C24.6859 48.3729 23.0022 46.6891 23.0022 44.6199V37.4065C23.0022 35.3373 24.6859 33.6535 26.7552 33.6535H30.9868C31.8156 33.6535 32.4878 32.9812 32.4878 32.1524C32.4878 31.3236 31.8156 30.6513 30.9868 30.6513H26.7552C23.0299 30.6513 20 33.6818 20 37.4065V44.6199C20 48.3446 23.0304 51.3751 26.7552 51.3751L47.8366 51.3756C51.5619 51.3756 54.5918 48.3452 54.5918 44.6204V37.4071C54.5918 33.6818 51.5614 30.6513 47.8366 30.6513Z" fill="#2965D5"/>
<path d="M32.2962 37.1824C31.7098 36.5959 30.76 36.5959 30.1736 37.1824C29.5871 37.7682 29.5871 38.7191 30.1736 39.305L36.2341 45.3655C36.5157 45.6472 36.8974 45.8053 37.2954 45.8053C37.6933 45.8053 38.0755 45.6471 38.3567 45.3655L44.4166 39.305C45.003 38.7191 45.003 37.7682 44.4166 37.1824C43.8302 36.5959 42.8804 36.5959 42.294 37.1824L38.797 40.6794L38.7965 24.5011C38.7965 23.6723 38.1242 23 37.2954 23C36.4666 23 35.7943 23.6723 35.7943 24.5011V40.6794L32.2962 37.1824Z" fill="#2965D5"/>
</svg>
