<svg width="523" height="521" viewBox="0 0 523 521" fill="none" xmlns="http://www.w3.org/2000/svg">
<path d="M207.518 452.382C211.995 452.382 215.624 448.754 215.624 444.277C215.624 439.801 211.995 436.173 207.518 436.173C203.041 436.173 199.411 439.801 199.411 444.277C199.411 448.754 203.041 452.382 207.518 452.382Z" fill="#5C41E8"/>
<path d="M230.195 436.147C234.672 436.147 238.301 432.519 238.301 428.042C238.301 423.566 234.672 419.938 230.195 419.938C225.718 419.938 222.089 423.566 222.089 428.042C222.089 432.519 225.718 436.147 230.195 436.147Z" fill="#5C41E8"/>
<path d="M230.258 471.201C234.735 471.195 238.359 467.242 238.352 462.372C238.345 457.503 234.711 453.56 230.234 453.566C225.757 453.572 222.133 457.525 222.14 462.395C222.146 467.264 225.781 471.207 230.258 471.201Z" fill="#5C41E8"/>
<path d="M215.827 454.518C222.128 458.801 227.517 461.858 227.865 461.346C228.213 460.835 223.387 456.949 217.087 452.666C210.786 448.384 205.397 445.327 205.049 445.838C204.701 446.35 209.527 450.236 215.827 454.518Z" fill="#5C41E8"/>
<path d="M219.221 436.094C224.732 431.824 228.893 427.967 228.514 427.478C228.135 426.989 223.36 430.054 217.849 434.324C212.337 438.593 208.177 442.451 208.556 442.94C208.934 443.428 213.709 440.363 219.221 436.094Z" fill="#5C41E8"/>
<path d="M378.983 324.219L358.126 316.534L337.472 324.117C334.838 325.39 332.522 326.153 332.522 328.672V341.218C332.522 349.933 334.749 358.56 339.33 366.181C343.186 372.594 349.154 379.197 358.342 383.396C366.78 380.584 373.091 373.09 376.947 366.664C381.529 359.043 383.756 350.417 383.756 341.701V330.415C383.73 326.84 381.885 325.084 378.983 324.219Z" fill="#EBEBEB"/>
<path d="M378.983 324.219C378.983 324.219 379.454 324.308 380.307 324.664C381.121 325.021 382.432 325.733 383.221 327.362C383.615 328.163 383.806 329.156 383.845 330.225C383.857 331.293 383.857 332.464 383.87 333.711C383.883 336.217 383.883 339.08 383.895 342.261C383.857 348.623 382.572 356.422 378.589 364.158C376.591 368 373.995 371.83 370.737 375.329C367.454 378.803 363.369 381.945 358.431 383.638L358.342 383.676L358.253 383.638C351.75 380.724 345.668 375.813 341.175 369.438C335.805 361.957 332.98 353.19 332.433 344.844C332.28 342.757 332.306 340.696 332.306 338.673C332.306 336.65 332.306 334.665 332.318 332.718C332.318 331.739 332.318 330.784 332.318 329.83C332.331 329.347 332.306 328.889 332.331 328.392C332.369 327.896 332.496 327.387 332.764 326.955C333.298 326.077 334.151 325.542 334.952 325.097C335.78 324.652 336.607 324.295 337.409 323.914H337.421H337.434C345.286 321.051 352.259 318.519 358.113 316.381L358.177 316.356L358.228 316.381C364.756 318.824 369.948 320.758 373.549 322.107C375.306 322.769 376.667 323.29 377.622 323.659C378.054 323.825 378.411 323.965 378.665 324.066C378.869 324.155 378.996 324.206 378.983 324.219C378.971 324.232 378.856 324.194 378.614 324.117C378.347 324.028 378.003 323.901 377.558 323.748C376.591 323.405 375.217 322.909 373.448 322.285C369.834 320.975 364.616 319.079 358.062 316.699H358.177C352.336 318.862 345.375 321.433 337.536 324.334L337.561 324.321C336.76 324.715 335.92 325.084 335.131 325.504C334.342 325.937 333.578 326.446 333.133 327.184C332.662 327.934 332.764 328.863 332.764 329.83C332.764 330.784 332.764 331.751 332.764 332.718C332.764 334.665 332.764 336.65 332.776 338.673C332.776 340.696 332.751 342.744 332.916 344.806C333.489 353.063 336.276 361.728 341.583 369.12C346.024 375.418 352.03 380.266 358.444 383.154L358.253 383.141C363.089 381.5 367.123 378.421 370.368 374.998C373.613 371.538 376.196 367.759 378.182 363.954C382.152 356.308 383.475 348.572 383.565 342.248C383.577 339.067 383.59 336.205 383.615 333.698C383.577 331.204 383.857 329.003 383.056 327.425C382.33 325.835 381.058 325.122 380.269 324.741C379.861 324.537 379.531 324.423 379.314 324.346C379.098 324.27 378.983 324.232 378.983 324.219Z" fill="#263238"/>
<path d="M372.684 357.873H368.306V334.029C368.306 328.418 363.738 323.85 358.126 323.85C352.514 323.85 347.945 328.418 347.945 334.029V357.873H343.568V334.029C343.568 326 350.096 319.473 358.126 319.473C366.156 319.473 372.684 326 372.684 334.029V357.873Z" fill="#455A64"/>
<g opacity="0.4">
<path d="M372.684 357.873H368.306V334.029C368.306 328.418 363.738 323.85 358.126 323.85C352.514 323.85 347.945 328.418 347.945 334.029V357.873H343.568V334.029C343.568 326 350.096 319.473 358.126 319.473C366.156 319.473 372.684 326 372.684 334.029V357.873Z" fill="black"/>
</g>
<path d="M373.435 372.441H342.83C340.45 372.441 338.516 370.507 338.516 368.128V351.587C338.516 349.208 340.45 347.274 342.83 347.274H373.435C375.815 347.274 377.749 349.208 377.749 351.587V368.128C377.749 370.507 375.815 372.441 373.435 372.441Z" fill="#5C41E8"/>
<g opacity="0.5">
<path d="M361.409 356.575C361.409 354.768 359.946 353.292 358.126 353.292C356.319 353.292 354.843 354.755 354.843 356.575C354.843 358.076 355.848 359.323 357.222 359.717V364.616H359.017V359.717C360.391 359.323 361.409 358.076 361.409 356.575Z" fill="black"/>
</g>
<path d="M340.603 370.049C340.694 370.049 340.768 365.851 340.768 360.672C340.768 355.493 340.694 351.295 340.603 351.295C340.511 351.295 340.437 355.493 340.437 360.672C340.437 365.851 340.511 370.049 340.603 370.049Z" fill="#FAFAFA"/>
<path d="M355.555 360.773C355.543 360.786 355.403 360.723 355.173 360.557C354.944 360.392 354.639 360.112 354.334 359.692C353.723 358.89 353.163 357.427 353.532 355.862C353.914 354.297 355.072 353.241 355.975 352.796C356.433 352.567 356.841 352.452 357.121 352.401C357.4 352.351 357.553 352.363 357.566 352.376C357.579 352.44 356.942 352.49 356.09 352.987C355.25 353.457 354.206 354.475 353.85 355.926C353.506 357.376 353.99 358.75 354.524 359.552C355.059 360.392 355.606 360.723 355.555 360.773Z" fill="#FAFAFA"/>
<path d="M414.717 223.869C415.544 223.373 416.422 222.991 417.326 222.737L417.86 220.154L422.212 220.078L422.836 222.635C423.752 222.864 424.643 223.207 425.483 223.678L427.684 222.24L430.815 225.269L429.453 227.521C429.95 228.348 430.331 229.226 430.586 230.129L433.169 230.663L433.246 235.015L430.688 235.638C430.459 236.554 430.115 237.445 429.644 238.285L431.082 240.486L428.053 243.616L425.801 242.254C424.974 242.751 424.096 243.132 423.192 243.387L422.658 245.97L418.306 246.046L417.682 243.489C416.766 243.26 415.875 242.916 415.035 242.445L412.834 243.883L409.703 240.855L411.065 238.603C410.568 237.776 410.187 236.898 409.932 235.995L407.349 235.46L407.272 231.109L409.83 230.485C410.059 229.569 410.403 228.679 410.874 227.839L409.436 225.638L412.465 222.508L414.717 223.869ZM417.033 229.671C415.239 231.529 415.29 234.48 417.148 236.274C419.006 238.068 421.958 238.018 423.752 236.16C425.547 234.302 425.496 231.35 423.638 229.556C421.78 227.762 418.827 227.813 417.033 229.671Z" fill="#5C41E8"/>
<path d="M417.033 229.671C417.033 229.671 417.275 229.327 417.898 228.908C418.509 228.5 419.591 228.042 420.94 228.182C421.614 228.259 422.34 228.475 423.014 228.92C423.676 229.366 424.299 229.989 424.694 230.803C424.897 231.211 425.037 231.656 425.114 232.114C425.203 232.572 425.203 233.068 425.139 233.552C425.025 234.531 424.554 235.486 423.841 236.249C423.116 236.987 422.161 237.483 421.194 237.636C420.711 237.725 420.227 237.725 419.756 237.661C419.285 237.598 418.84 237.47 418.433 237.28C417.606 236.923 416.957 236.313 416.486 235.676C416.015 235.028 415.773 234.302 415.671 233.628C415.48 232.279 415.9 231.185 416.282 230.562C416.702 229.925 417.033 229.671 417.033 229.671C417.058 229.696 416.753 229.976 416.397 230.613C416.04 231.249 415.671 232.305 415.875 233.603C415.977 234.239 416.231 234.926 416.677 235.549C417.135 236.16 417.758 236.72 418.547 237.063C418.929 237.241 419.362 237.356 419.807 237.42C420.253 237.483 420.711 237.47 421.169 237.394C422.085 237.241 422.976 236.783 423.663 236.071C424.338 235.358 424.783 234.455 424.897 233.526C424.961 233.068 424.948 232.61 424.872 232.165C424.808 231.719 424.668 231.3 424.478 230.918C424.108 230.142 423.523 229.531 422.9 229.111C422.263 228.679 421.576 228.462 420.927 228.373C419.629 228.208 418.573 228.615 417.962 228.997C417.326 229.378 417.058 229.696 417.033 229.671Z" fill="#455A64"/>
<path d="M414.717 223.869C414.717 223.869 414.666 223.844 414.564 223.793C414.462 223.729 414.322 223.653 414.132 223.538C413.737 223.309 413.164 222.966 412.439 222.533L412.49 222.52C411.714 223.322 410.708 224.391 409.487 225.676L409.499 225.587C409.945 226.248 410.428 226.986 410.95 227.775L410.976 227.813L410.95 227.852C410.517 228.628 410.161 229.506 409.932 230.473L409.919 230.524L409.868 230.536C409.067 230.74 408.214 230.943 407.311 231.172L407.387 231.083C407.412 232.457 407.438 233.908 407.476 235.435L407.387 235.333C408.189 235.498 409.067 235.677 409.97 235.867L410.034 235.88L410.047 235.944C410.288 236.783 410.657 237.674 411.166 238.514L411.205 238.577L411.166 238.641C410.747 239.341 410.276 240.104 409.805 240.893L409.779 240.74C410.772 241.695 411.828 242.713 412.91 243.756L412.757 243.743C413.444 243.298 414.195 242.802 414.959 242.293L415.022 242.255L415.086 242.293C415.85 242.725 416.753 243.082 417.695 243.323L417.771 243.336L417.797 243.412C417.987 244.214 418.204 245.092 418.42 245.97L418.293 245.868C419.667 245.843 421.156 245.817 422.645 245.792L422.518 245.893C422.683 245.079 422.874 244.201 423.052 243.311L423.065 243.234L423.141 243.209C423.994 242.967 424.885 242.598 425.712 242.089L425.776 242.051L425.839 242.089C426.59 242.547 427.341 243.005 428.092 243.451L427.926 243.476C428.944 242.42 429.962 241.377 430.955 240.346L430.942 240.511C430.459 239.773 429.975 239.036 429.504 238.31L429.453 238.247L429.491 238.183C429.95 237.356 430.293 236.478 430.522 235.575L430.535 235.498L430.611 235.486C431.477 235.269 432.329 235.066 433.169 234.862L433.067 234.989C433.042 233.501 433.016 232.05 432.991 230.638L433.093 230.753C432.215 230.574 431.362 230.384 430.51 230.218L430.446 230.205L430.42 230.142C430.153 229.213 429.784 228.348 429.301 227.559L429.262 227.495L429.301 227.432C429.771 226.656 430.23 225.918 430.675 225.18L430.688 225.32C429.581 224.251 428.55 223.246 427.557 222.291L427.684 222.304C426.908 222.813 426.183 223.284 425.483 223.742L425.432 223.767L425.381 223.742C424.503 223.246 423.625 222.915 422.76 222.699L422.709 222.686L422.747 222.66C422.518 221.732 422.314 220.892 422.123 220.103L422.2 220.167C420.507 220.192 419.069 220.205 417.847 220.218L417.898 220.167C417.682 221.197 417.491 222.037 417.351 222.737L417.338 222.762L417.313 222.775C416.397 223.029 415.748 223.335 415.328 223.538C415.124 223.64 414.971 223.729 414.857 223.78C414.768 223.844 414.717 223.869 414.717 223.869C414.717 223.869 414.768 223.831 414.857 223.767C414.959 223.704 415.111 223.615 415.315 223.5C415.735 223.284 416.384 222.966 417.3 222.686L417.275 222.724C417.415 222.024 417.58 221.172 417.797 220.141L417.809 220.09H417.86C419.095 220.065 420.533 220.027 422.212 220.001H422.276L422.289 220.065C422.48 220.854 422.696 221.693 422.925 222.622L422.861 222.559C423.739 222.775 424.63 223.106 425.534 223.602H425.432C426.132 223.144 426.857 222.66 427.634 222.151L427.697 222.101L427.761 222.151C428.753 223.106 429.797 224.111 430.904 225.167L430.968 225.231L430.917 225.307C430.471 226.032 430.026 226.783 429.555 227.559V227.444C430.039 228.246 430.433 229.137 430.7 230.078L430.611 229.989C431.451 230.167 432.317 230.345 433.195 230.524L433.296 230.549V230.651C433.322 232.063 433.347 233.514 433.373 235.002V235.104L433.271 235.129C432.431 235.333 431.578 235.549 430.713 235.753L430.802 235.664C430.573 236.58 430.23 237.483 429.746 238.336V238.196C430.23 238.921 430.7 239.659 431.184 240.397L431.235 240.486L431.159 240.562C430.166 241.593 429.161 242.636 428.13 243.692L428.053 243.769L427.964 243.718C427.226 243.272 426.475 242.814 425.712 242.356H425.852C425.012 242.865 424.096 243.247 423.218 243.501L423.307 243.4C423.129 244.29 422.938 245.168 422.772 245.983L422.747 246.084H422.645C421.143 246.11 419.667 246.135 418.293 246.161H418.191L418.166 246.059C417.949 245.181 417.733 244.303 417.542 243.501L417.631 243.59C416.664 243.349 415.748 242.98 414.959 242.534H415.086C414.322 243.031 413.572 243.527 412.884 243.972L412.795 244.023L412.732 243.959C411.65 242.903 410.581 241.886 409.601 240.931L409.538 240.868L409.588 240.791C410.059 240.015 410.53 239.239 410.95 238.539V238.654C410.428 237.789 410.047 236.885 409.818 236.02L409.894 236.096C408.99 235.906 408.112 235.727 407.323 235.549L407.247 235.537V235.447C407.222 233.921 407.196 232.47 407.183 231.096V231.02L407.26 231.007C408.163 230.791 409.016 230.587 409.818 230.384L409.754 230.447C409.996 229.467 410.365 228.577 410.81 227.788V227.864C410.288 227.063 409.805 226.325 409.372 225.663L409.347 225.612L409.385 225.574C410.619 224.302 411.65 223.258 412.426 222.457L412.452 222.431L412.477 222.444C413.203 222.889 413.75 223.233 414.132 223.475C414.31 223.589 414.45 223.678 414.564 223.742C414.666 223.831 414.717 223.869 414.717 223.869Z" fill="#263238"/>
<path d="M388.782 219.925C389.278 219.632 389.8 219.403 390.335 219.251L390.653 217.711L393.262 217.66L393.631 219.187C394.178 219.327 394.712 219.53 395.209 219.81L396.532 218.945L398.403 220.752L397.588 222.101C397.881 222.597 398.11 223.119 398.263 223.666L399.803 223.984L399.853 226.592L398.326 226.961C398.186 227.508 397.983 228.042 397.703 228.539L398.568 229.862L396.761 231.732L395.412 230.918C394.916 231.211 394.394 231.44 393.86 231.592L393.542 233.132L390.933 233.183L390.564 231.656C390.016 231.516 389.482 231.312 388.986 231.032L387.662 231.898L385.792 230.091L386.606 228.742C386.313 228.246 386.084 227.724 385.932 227.177L384.392 226.859L384.341 224.251L385.868 223.882C386.008 223.335 386.211 222.8 386.491 222.304L385.626 220.981L387.433 219.111L388.782 219.925ZM390.169 223.398C389.1 224.505 389.126 226.274 390.233 227.355C391.34 228.424 393.109 228.399 394.191 227.292C395.259 226.185 395.234 224.416 394.127 223.335C393.02 222.253 391.251 222.291 390.169 223.398Z" fill="#5C41E8"/>
<path d="M390.169 223.398C390.169 223.398 390.322 223.195 390.691 222.94C391.06 222.699 391.696 222.419 392.523 222.508C392.918 222.559 393.363 222.686 393.758 222.953C394.152 223.22 394.534 223.589 394.763 224.085C394.89 224.327 394.967 224.594 395.018 224.874C395.069 225.154 395.069 225.447 395.03 225.74C394.954 226.325 394.687 226.897 394.254 227.355C393.821 227.801 393.249 228.093 392.676 228.182C392.383 228.233 392.091 228.233 391.811 228.195C391.531 228.157 391.264 228.081 391.022 227.966C390.525 227.75 390.131 227.394 389.851 226.999C389.571 226.605 389.431 226.172 389.367 225.778C389.253 224.963 389.507 224.314 389.737 223.946C389.978 223.551 390.169 223.398 390.169 223.398C390.182 223.411 390.004 223.577 389.787 223.971C389.584 224.353 389.355 224.989 389.482 225.765C389.546 226.147 389.686 226.567 389.966 226.936C390.233 227.305 390.615 227.635 391.085 227.839C391.315 227.941 391.569 228.017 391.836 228.055C392.103 228.093 392.383 228.093 392.651 228.042C393.198 227.953 393.732 227.673 394.152 227.254C394.56 226.821 394.814 226.287 394.89 225.727C394.929 225.447 394.929 225.18 394.878 224.912C394.839 224.645 394.75 224.391 394.636 224.162C394.42 223.691 394.063 223.335 393.694 223.08C393.312 222.826 392.892 222.686 392.511 222.635C391.734 222.533 391.098 222.788 390.729 223.004C390.347 223.22 390.182 223.411 390.169 223.398Z" fill="#455A64"/>
<path d="M388.782 219.925C388.782 219.925 388.757 219.912 388.693 219.874C388.629 219.836 388.54 219.785 388.438 219.721C388.197 219.581 387.866 219.378 387.42 219.123H387.459C387 219.607 386.39 220.243 385.664 221.006V220.955C385.931 221.35 386.224 221.795 386.53 222.266L386.542 222.291L386.53 222.317C386.275 222.775 386.059 223.309 385.919 223.882L385.906 223.907L385.868 223.92C385.397 224.035 384.875 224.162 384.341 224.302L384.379 224.251C384.392 225.078 384.417 225.943 384.43 226.859L384.379 226.796C384.863 226.897 385.384 226.999 385.919 227.114L385.957 227.126L385.97 227.164C386.11 227.673 386.339 228.208 386.644 228.704L386.67 228.742L386.644 228.78C386.39 229.2 386.11 229.658 385.83 230.129L385.817 230.04C386.402 230.613 387.039 231.223 387.688 231.847L387.599 231.834C388.006 231.567 388.464 231.274 388.922 230.969L388.96 230.943L388.998 230.969C389.456 231.223 389.991 231.44 390.564 231.58L390.615 231.592L390.627 231.643C390.742 232.127 390.869 232.648 390.996 233.17L390.92 233.106C391.747 233.094 392.625 233.081 393.529 233.055L393.452 233.119C393.554 232.636 393.669 232.101 393.77 231.58L393.783 231.529L393.834 231.516C394.343 231.376 394.878 231.147 395.374 230.854L395.412 230.829L395.45 230.854C395.908 231.134 396.354 231.401 396.799 231.669L396.697 231.681C397.308 231.045 397.919 230.422 398.504 229.811L398.492 229.913C398.199 229.467 397.906 229.035 397.626 228.59L397.601 228.551L397.626 228.513C397.906 228.017 398.11 227.495 398.237 226.948L398.25 226.897L398.301 226.885C398.823 226.757 399.332 226.63 399.828 226.516L399.764 226.592C399.752 225.701 399.739 224.836 399.726 223.984L399.79 224.06C399.268 223.945 398.746 223.844 398.25 223.742L398.212 223.729L398.199 223.691C398.046 223.144 397.817 222.622 397.537 222.151L397.512 222.113L397.537 222.075C397.817 221.617 398.085 221.172 398.352 220.726L398.364 220.803C397.703 220.167 397.079 219.556 396.494 218.983L396.57 218.996C396.099 219.301 395.667 219.581 395.247 219.861L395.221 219.887L395.196 219.874C394.674 219.581 394.14 219.378 393.631 219.251L393.592 219.238L393.58 219.212C393.44 218.653 393.325 218.156 393.211 217.686L393.261 217.724C392.256 217.736 391.391 217.749 390.653 217.762L390.691 217.736C390.564 218.347 390.449 218.856 390.36 219.276V219.289H390.347C389.8 219.441 389.406 219.62 389.151 219.747C389.037 219.81 388.935 219.861 388.871 219.899C388.82 219.912 388.782 219.938 388.782 219.925C388.782 219.925 388.807 219.899 388.871 219.861C388.935 219.823 389.024 219.772 389.138 219.709C389.393 219.581 389.775 219.39 390.335 219.225L390.322 219.251C390.411 218.831 390.513 218.322 390.627 217.711V217.686H390.653C391.391 217.673 392.243 217.647 393.261 217.635H393.3L393.312 217.673C393.427 218.144 393.554 218.653 393.694 219.2L393.656 219.161C394.178 219.289 394.712 219.492 395.247 219.785H395.196C395.616 219.505 396.048 219.225 396.507 218.92L396.545 218.894L396.583 218.932C397.181 219.505 397.805 220.103 398.466 220.739L398.504 220.777L398.479 220.828C398.212 221.261 397.945 221.719 397.665 222.177V222.101C397.957 222.584 398.186 223.106 398.352 223.678L398.301 223.627C398.81 223.729 399.319 223.844 399.841 223.945L399.892 223.958V224.022C399.904 224.874 399.93 225.739 399.942 226.63V226.694L399.879 226.706C399.383 226.834 398.873 226.961 398.352 227.088L398.403 227.037C398.263 227.584 398.059 228.131 397.779 228.64V228.564C398.059 228.997 398.352 229.442 398.644 229.875L398.683 229.926L398.632 229.976C398.034 230.587 397.435 231.223 396.825 231.847L396.774 231.898L396.723 231.859C396.277 231.592 395.832 231.312 395.374 231.045H395.463C394.954 231.351 394.407 231.58 393.885 231.732L393.936 231.669C393.821 232.203 393.72 232.725 393.618 233.208L393.605 233.272H393.541C392.638 233.284 391.76 233.297 390.933 233.323H390.869L390.856 233.259C390.729 232.725 390.602 232.203 390.487 231.732L390.538 231.783C389.953 231.643 389.406 231.414 388.935 231.147H389.011C388.553 231.44 388.108 231.745 387.688 232.012L387.637 232.05L387.586 232.012C386.937 231.389 386.301 230.765 385.715 230.205L385.677 230.167L385.702 230.116C385.982 229.646 386.262 229.188 386.517 228.768V228.844C386.211 228.335 385.982 227.788 385.83 227.266L385.881 227.317C385.346 227.203 384.812 227.088 384.341 226.999L384.29 226.986V226.935C384.277 226.019 384.264 225.154 384.252 224.327V224.276L384.303 224.264C384.837 224.136 385.359 224.009 385.83 223.895L385.792 223.933C385.944 223.347 386.161 222.813 386.428 222.342V222.393C386.122 221.922 385.83 221.477 385.575 221.07L385.55 221.045L385.575 221.019C386.313 220.256 386.937 219.632 387.395 219.149L387.408 219.136L387.42 219.149C387.853 219.416 388.184 219.619 388.413 219.772C388.528 219.836 388.604 219.899 388.668 219.938C388.757 219.912 388.782 219.925 388.782 219.925Z" fill="#263238"/>
<path d="M389.227 251.428C389.227 251.428 389.698 251.059 390.691 250.754C391.683 250.448 393.3 250.27 395.056 251.008C395.921 251.377 396.812 251.963 397.537 252.828C398.25 253.68 398.823 254.774 399.026 256.021C399.141 256.645 399.153 257.294 399.064 257.943C398.988 258.591 398.81 259.253 398.517 259.877C397.97 261.136 396.965 262.23 395.705 262.956C394.432 263.655 392.969 263.935 391.607 263.757C390.92 263.681 390.271 263.49 389.673 263.21C389.075 262.943 388.527 262.587 388.057 262.167C387.089 261.352 386.466 260.284 386.097 259.24C385.741 258.184 385.702 257.116 385.83 256.174C386.122 254.278 387.115 252.993 387.878 252.306C388.68 251.644 389.227 251.428 389.227 251.428C389.253 251.466 388.731 251.721 387.993 252.433C387.268 253.133 386.339 254.405 386.097 256.225C385.982 257.128 386.033 258.146 386.39 259.151C386.746 260.144 387.357 261.162 388.273 261.925C388.718 262.319 389.253 262.65 389.813 262.905C390.385 263.159 391.009 263.337 391.645 263.414C392.931 263.579 394.318 263.312 395.514 262.65C396.71 261.963 397.652 260.933 398.186 259.737C398.466 259.151 398.632 258.528 398.708 257.904C398.784 257.281 398.784 256.67 398.683 256.085C398.504 254.902 397.97 253.858 397.295 253.031C396.621 252.204 395.781 251.632 394.954 251.263C393.274 250.525 391.709 250.652 390.729 250.906C389.749 251.161 389.253 251.479 389.227 251.428Z" fill="#263238"/>
<path d="M388.451 242.738C388.451 242.738 388.4 242.687 388.286 242.573C388.171 242.445 388.019 242.28 387.802 242.064C387.37 241.593 386.746 240.919 385.932 240.041L386.008 240.053C384.659 240.83 382.877 241.835 380.714 243.056L380.765 242.942C381.083 244.01 381.439 245.194 381.821 246.466L381.847 246.53L381.796 246.581C380.905 247.446 380.078 248.476 379.378 249.685L379.34 249.749H379.263C378.118 249.698 376.871 249.634 375.586 249.571L375.726 249.469C375.217 251.314 374.669 253.273 374.097 255.334L374.033 255.169C375.038 255.703 376.133 256.301 377.265 256.912L377.342 256.95V257.039C377.329 258.261 377.469 259.609 377.813 260.933L377.838 261.022L377.762 261.085C376.922 261.849 375.993 262.688 375.038 263.554L375.077 263.35C376.018 265.017 377.024 266.811 378.054 268.656L377.851 268.579C378.945 268.249 380.154 267.892 381.376 267.523L381.478 267.498L381.554 267.574C382.407 268.452 383.463 269.305 384.634 269.992L384.723 270.043V270.157C384.659 271.302 384.595 272.562 384.532 273.834L384.392 273.643C386.25 274.165 388.235 274.725 390.258 275.285L390.042 275.374C390.589 274.356 391.187 273.249 391.798 272.142L391.849 272.04H391.964C393.211 272.066 394.547 271.913 395.845 271.582L395.959 271.557L396.036 271.646C396.863 272.562 397.69 273.478 398.505 274.369L398.275 274.33C400.07 273.325 401.839 272.333 403.582 271.353L403.493 271.569C403.137 270.386 402.793 269.203 402.449 268.045L402.411 267.943L402.488 267.867C403.442 266.938 404.257 265.907 404.906 264.788L404.956 264.699H405.071C406.305 264.762 407.54 264.826 408.736 264.89L408.558 265.017C409.118 263.019 409.678 261.06 410.212 259.164L410.301 259.368C409.207 258.77 408.125 258.184 407.069 257.612L406.98 257.561V257.459C407.005 256.123 406.84 254.8 406.522 253.566L406.496 253.477L406.573 253.413C407.514 252.573 408.418 251.759 409.309 250.957L409.27 251.148C408.227 249.278 407.247 247.522 406.305 245.843L406.471 245.906C405.236 246.275 404.066 246.619 402.946 246.949L402.869 246.975L402.819 246.911C401.839 245.906 400.795 245.105 399.739 244.468L399.675 244.43V244.354C399.752 243.018 399.815 241.822 399.879 240.677L399.955 240.791C397.69 240.142 395.756 239.595 394.101 239.125L394.203 239.086C393.491 240.371 392.918 241.428 392.434 242.305L392.422 242.344H392.383C391.047 242.318 390.055 242.458 389.406 242.573C389.1 242.636 388.858 242.674 388.68 242.713C388.528 242.738 388.451 242.751 388.451 242.738C388.451 242.738 388.528 242.713 388.68 242.662C388.833 242.624 389.075 242.56 389.406 242.496C390.055 242.369 391.047 242.204 392.396 242.216L392.345 242.242C392.816 241.351 393.389 240.295 394.076 238.997L394.101 238.934L394.165 238.946C395.819 239.404 397.754 239.939 400.032 240.562L400.121 240.588V240.677C400.07 241.809 400.006 243.018 399.943 244.354L399.879 244.239C400.961 244.876 402.03 245.677 403.035 246.708L402.895 246.67C404.015 246.339 405.173 245.983 406.42 245.614L406.534 245.575L406.585 245.677C407.527 247.357 408.52 249.112 409.576 250.97L409.639 251.072L409.55 251.161C408.66 251.963 407.756 252.777 406.827 253.629L406.878 253.464C407.209 254.736 407.374 256.072 407.362 257.446L407.273 257.294C408.329 257.866 409.41 258.451 410.505 259.037L410.619 259.1L410.581 259.228C410.047 261.136 409.5 263.083 408.94 265.08L408.901 265.22L408.761 265.208C407.552 265.144 406.331 265.08 405.084 265.017L405.249 264.928C404.575 266.073 403.747 267.142 402.768 268.083L402.819 267.905C403.162 269.063 403.518 270.246 403.862 271.429L403.9 271.569L403.773 271.646C402.03 272.625 400.261 273.618 398.466 274.623L398.339 274.699L398.237 274.585C397.423 273.681 396.596 272.778 395.768 271.862L395.947 271.913C394.61 272.256 393.236 272.409 391.964 272.384L392.129 272.282C391.531 273.389 390.933 274.496 390.373 275.514L390.309 275.641L390.169 275.603C388.159 275.03 386.173 274.47 384.315 273.949L384.175 273.91L384.188 273.758C384.252 272.485 384.315 271.239 384.379 270.081L384.468 270.246C383.272 269.534 382.19 268.668 381.312 267.765L381.49 267.816C380.269 268.172 379.06 268.528 377.965 268.859L377.838 268.897L377.774 268.77C376.744 266.925 375.738 265.131 374.797 263.465L374.733 263.35L374.835 263.261C375.789 262.409 376.718 261.569 377.571 260.805L377.52 260.971C377.164 259.609 377.036 258.235 377.049 256.988L377.125 257.128C375.993 256.518 374.898 255.92 373.893 255.372L373.791 255.322L373.829 255.207C374.415 253.159 374.962 251.199 375.484 249.354L375.509 249.252H375.611C376.896 249.316 378.143 249.392 379.289 249.456L379.174 249.52C379.9 248.298 380.752 247.255 381.656 246.39L381.63 246.504C381.261 245.232 380.918 244.049 380.599 242.98L380.574 242.903L380.638 242.865C382.801 241.669 384.595 240.677 385.957 239.913L385.995 239.888L386.021 239.926C386.81 240.817 387.408 241.491 387.828 241.975C388.019 242.204 388.171 242.382 388.286 242.509C388.4 242.674 388.451 242.738 388.451 242.738Z" fill="#263238"/>
<path d="M376.858 167.95L347.869 164.489C345.871 164.247 344.433 162.428 344.675 160.43L349.46 120.313C349.702 118.315 351.521 116.878 353.519 117.119L371.908 119.308L384.392 135.67L380.93 164.743C380.676 166.754 378.856 168.191 376.858 167.95Z" fill="#EBEBEB"/>
<path d="M376.858 167.95C376.858 167.924 377.075 167.962 377.495 167.924C377.902 167.886 378.525 167.771 379.2 167.339C379.849 166.906 380.561 166.117 380.752 164.972C380.892 163.789 381.032 162.44 381.21 160.926C381.91 154.806 382.903 146.129 384.112 135.645L384.163 135.848C380.371 130.899 376.158 125.39 371.653 119.511L371.87 119.639C368.459 119.232 364.909 118.812 361.257 118.379C359.424 118.163 357.579 117.946 355.708 117.717C354.792 117.628 353.774 117.438 352.934 117.438C352.069 117.476 351.216 117.87 350.631 118.519C350.223 118.964 349.931 119.524 349.829 120.122C349.727 120.733 349.663 121.433 349.587 122.069C349.434 123.379 349.269 124.69 349.116 125.988C348.811 128.583 348.505 131.128 348.2 133.634C347.589 138.647 347.017 143.482 346.457 148.088C346.177 150.391 345.909 152.643 345.642 154.819C345.502 155.913 345.375 156.982 345.248 158.038C345.184 158.572 345.12 159.094 345.057 159.616C345.006 160.15 344.904 160.646 344.942 161.117C345.006 162.071 345.515 162.962 346.24 163.522C346.609 163.802 347.017 164.018 347.462 164.133C347.882 164.234 348.391 164.273 348.862 164.336C350.758 164.565 352.59 164.794 354.334 165.01C361.269 165.876 366.894 166.588 370.826 167.084C372.735 167.339 374.237 167.542 375.306 167.682C375.789 167.759 376.171 167.81 376.464 167.848C376.718 167.911 376.858 167.937 376.858 167.95C376.858 167.962 376.718 167.95 376.464 167.937C376.158 167.911 375.777 167.873 375.293 167.835C374.224 167.721 372.71 167.568 370.801 167.364C366.856 166.919 361.218 166.283 354.283 165.507C352.539 165.303 350.707 165.1 348.811 164.871C348.327 164.807 347.869 164.781 347.347 164.654C346.838 164.527 346.355 164.285 345.935 163.967C345.082 163.318 344.497 162.288 344.42 161.181C344.37 160.608 344.484 160.087 344.535 159.578C344.599 159.056 344.662 158.534 344.713 158C344.84 156.944 344.968 155.862 345.095 154.768C345.349 152.58 345.617 150.34 345.884 148.037C346.431 143.432 347.004 138.584 347.589 133.571C347.882 131.064 348.187 128.507 348.493 125.924C348.645 124.626 348.798 123.328 348.964 122.005C349.053 121.344 349.104 120.707 349.218 120.008C349.345 119.295 349.689 118.621 350.185 118.074C350.885 117.298 351.903 116.814 352.947 116.776C354.003 116.789 354.868 116.979 355.823 117.069C357.693 117.298 359.551 117.514 361.371 117.73C365.023 118.163 368.574 118.595 371.972 119.002L372.112 119.015L372.188 119.117C376.667 125.008 380.867 130.543 384.634 135.505L384.697 135.594L384.685 135.708C383.387 146.18 382.318 154.844 381.554 160.952C381.35 162.466 381.198 163.814 381.02 164.998C380.79 166.219 380.014 167.034 379.314 167.466C378.589 167.899 377.94 167.988 377.52 168C377.075 168.013 376.858 167.95 376.858 167.95Z" fill="#263238"/>
<path d="M371.895 119.321L370.546 130.606C370.317 132.464 371.653 134.156 373.511 134.385L384.366 135.683L371.895 119.321Z" fill="#F5F5F5"/>
<path d="M370.585 131.611C370.585 131.611 370.114 134.334 373.13 135.607C373.244 135.658 373.359 135.696 373.473 135.734C374.86 136.154 383.997 138.927 384.023 138.711C384.048 138.482 384.379 135.683 384.379 135.683L373.524 134.385C373.524 134.385 370.826 133.965 370.585 131.611Z" fill="#E0E0E0"/>
<path d="M361.449 129.334C365.155 129.776 368.173 130.015 368.191 129.868C368.208 129.722 365.218 129.245 361.512 128.803C357.806 128.361 354.788 128.122 354.771 128.269C354.753 128.415 357.743 128.892 361.449 129.334Z" fill="#263238"/>
<path d="M365.009 136.245C371.102 136.971 376.055 137.441 376.073 137.295C376.09 137.148 371.165 136.441 365.073 135.714C358.98 134.988 354.027 134.518 354.009 134.665C353.992 134.811 358.917 135.519 365.009 136.245Z" fill="#263238"/>
<path d="M365.384 141.683C372.028 142.475 377.428 142.998 377.445 142.852C377.463 142.705 372.091 141.944 365.447 141.152C358.803 140.36 353.403 139.837 353.385 139.983C353.368 140.13 358.74 140.891 365.384 141.683Z" fill="#263238"/>
<path d="M364.779 146.722C371.423 147.514 376.823 148.037 376.84 147.891C376.858 147.744 371.486 146.984 364.842 146.191C358.198 145.399 352.798 144.876 352.78 145.023C352.763 145.169 358.135 145.93 364.779 146.722Z" fill="#263238"/>
<path d="M364.173 151.738C370.817 152.53 376.217 153.053 376.234 152.907C376.252 152.76 370.88 151.999 364.236 151.207C357.592 150.415 352.192 149.892 352.174 150.038C352.157 150.185 357.529 150.946 364.173 151.738Z" fill="#263238"/>
<path d="M363.573 156.776C370.217 157.568 375.618 158.092 375.635 157.945C375.653 157.799 370.281 157.038 363.637 156.246C356.993 155.454 351.593 154.93 351.575 155.077C351.558 155.223 356.929 155.984 363.573 156.776Z" fill="#263238"/>
<path d="M384.379 135.683C384.366 135.772 382.814 135.67 380.307 135.428C378.996 135.289 377.52 135.136 375.916 134.97C375.077 134.881 374.211 134.78 373.32 134.678C372.353 134.563 371.348 134.08 370.724 133.215C370.406 132.795 370.19 132.248 370.177 131.726C370.152 131.204 370.228 130.734 370.279 130.288C370.393 129.398 370.495 128.532 370.61 127.693C370.826 126.089 371.03 124.626 371.208 123.316C371.564 120.822 371.832 119.282 371.921 119.295C372.01 119.308 371.908 120.86 371.666 123.367C371.526 124.677 371.373 126.153 371.208 127.756C371.119 128.596 371.017 129.461 370.915 130.352C370.801 131.268 370.686 132.12 371.259 132.807C372.302 134.309 374.377 134.029 375.993 134.347C377.596 134.563 379.06 134.767 380.383 134.945C382.852 135.327 384.392 135.581 384.379 135.683Z" fill="#263238"/>
<path d="M209.006 70.3989C212.939 68.7575 215.726 64.6987 215.751 59.9274C215.777 53.6802 211.043 48.5909 205.189 48.5654C199.335 48.54 194.55 53.5784 194.525 59.8384C194.512 64.6606 197.324 68.7575 201.295 70.4116C184.955 72.8672 185.706 90.6164 185.706 90.6164L224.328 90.7946C224.315 90.7818 225.194 72.8418 209.006 70.3989Z" fill="#5C41E8"/>
<path d="M329.264 353.852C330.586 353.852 331.657 352.781 331.657 351.46C331.657 350.139 330.586 349.068 329.264 349.068C327.943 349.068 326.872 350.139 326.872 351.46C326.872 352.781 327.943 353.852 329.264 353.852Z" fill="#444444"/>
<path d="M329.264 351.46C329.264 351.485 328.972 351.511 328.424 351.524C327.801 351.536 326.999 351.562 326.019 351.587C323.843 351.613 320.84 351.651 317.162 351.689C309.616 351.714 299.321 351.753 287.944 351.791C284.801 351.791 281.734 351.791 278.82 351.778H278.629L278.54 351.613C274.098 343.533 270.103 336.548 267.125 331.637C265.636 329.181 264.401 327.26 263.472 325.988C263.014 325.351 262.62 324.881 262.327 324.614C262.174 324.474 262.047 324.397 261.958 324.372C261.869 324.346 261.818 324.397 261.805 324.372C261.805 324.384 261.844 324.295 261.958 324.308C262.073 324.321 262.225 324.384 262.391 324.524C262.722 324.779 263.142 325.237 263.638 325.86C264.631 327.095 265.929 329.003 267.468 331.433C270.548 336.294 274.607 343.241 279.087 351.32L278.807 351.155C281.721 351.155 284.788 351.155 287.931 351.142C299.308 351.18 309.603 351.218 317.149 351.244C320.827 351.282 323.83 351.32 326.006 351.345C326.999 351.371 327.801 351.396 328.412 351.409C328.972 351.422 329.264 351.435 329.264 351.46Z" fill="#444444"/>
<path d="M332.904 152.516C334.225 152.516 335.296 151.445 335.296 150.124C335.296 148.803 334.225 147.732 332.904 147.732C331.583 147.732 330.511 148.803 330.511 150.124C330.511 151.445 331.583 152.516 332.904 152.516Z" fill="#444444"/>
<path d="M332.904 150.124C332.904 150.15 332.637 150.175 332.128 150.188C331.542 150.2 330.817 150.226 329.901 150.251C327.89 150.277 325.116 150.315 321.731 150.353C314.757 150.379 305.251 150.417 294.765 150.455C290.426 150.455 286.264 150.442 282.447 150.442L282.676 150.34C277.636 155.862 273.31 160.608 270.166 164.044C268.652 165.672 267.43 166.983 266.527 167.95C266.132 168.357 265.801 168.7 265.534 168.98C265.305 169.209 265.178 169.324 265.165 169.311C265.152 169.298 265.254 169.158 265.458 168.917C265.712 168.624 266.005 168.255 266.374 167.822C267.252 166.817 268.423 165.469 269.886 163.789C272.979 160.316 277.255 155.506 282.218 149.933L282.307 149.831H282.447C286.264 149.831 290.438 149.819 294.765 149.819C305.251 149.857 314.757 149.895 321.731 149.921C325.116 149.959 327.89 149.997 329.901 150.022C330.804 150.048 331.542 150.073 332.128 150.086C332.637 150.086 332.904 150.111 332.904 150.124Z" fill="#444444"/>
<path d="M213.092 417.38C215.123 417.38 216.769 415.734 216.769 413.703C216.769 411.672 215.123 410.026 213.092 410.026C211.06 410.026 209.414 411.672 209.414 413.703C209.414 415.734 211.06 417.38 213.092 417.38Z" fill="#444444"/>
<path d="M212.684 413.194C212.506 413.22 210.534 397.061 208.294 377.136C206.054 357.198 204.387 341.014 204.565 340.989C204.743 340.963 206.716 357.109 208.956 377.06C211.195 396.984 212.862 413.169 212.684 413.194Z" fill="#444444"/>
<path d="M205.278 102.144C206.599 102.144 207.67 101.073 207.67 99.7519C207.67 98.4308 206.599 97.3599 205.278 97.3599C203.957 97.3599 202.885 98.4308 202.885 99.7519C202.885 101.073 203.957 102.144 205.278 102.144Z" fill="#444444"/>
<path d="M205.011 136.853C205.194 136.853 205.342 128.548 205.342 118.303C205.342 108.057 205.194 99.7518 205.011 99.7518C204.828 99.7518 204.68 108.057 204.68 118.303C204.68 128.548 204.828 136.853 205.011 136.853Z" fill="#444444"/>
<path d="M359.157 249.876C360.478 249.876 361.549 248.805 361.549 247.484C361.549 246.163 360.478 245.092 359.157 245.092C357.836 245.092 356.765 246.163 356.765 247.484C356.765 248.805 357.836 249.876 359.157 249.876Z" fill="#444444"/>
<path d="M333.617 247.815C347.258 247.815 358.317 247.667 358.317 247.484C358.317 247.301 347.258 247.153 333.617 247.153C319.975 247.153 308.916 247.301 308.916 247.484C308.916 247.667 319.975 247.815 333.617 247.815Z" fill="#444444"/>
<path d="M219.085 176.118C206.894 173.917 194.372 174.4 182.397 177.581C181.405 177.848 181.825 179.375 182.817 179.121C194.499 176.004 206.754 175.495 218.653 177.658C219.671 177.836 220.103 176.296 219.085 176.118Z" fill="#5C41E8"/>
<path d="M229.469 184.388C211.081 177.798 190.376 178.599 172.547 186.551C171.618 186.971 172.42 188.333 173.349 187.925C190.796 180.151 211.081 179.49 229.049 185.928C230.017 186.271 230.424 184.732 229.469 184.388Z" fill="#5C41E8"/>
<path d="M236.736 192.111C219.442 185.864 199.704 182.925 181.812 188.434C176.098 190.19 170.702 192.837 165.828 196.285C165.001 196.87 165.79 198.244 166.63 197.659C183.097 186.017 204.056 185.304 223.132 189.732C227.599 190.775 232.002 192.086 236.316 193.651C237.283 193.995 237.69 192.455 236.736 192.111Z" fill="#5C41E8"/>
<path d="M242.361 200.713C223.565 190.279 200.468 187.506 180.145 195.101C173.451 197.595 167.228 201.132 161.553 205.458C160.751 206.069 161.54 207.456 162.354 206.833C171.822 199.618 182.83 194.745 194.639 193.04C205.214 191.513 216.108 192.531 226.314 195.636C231.607 197.239 236.723 199.415 241.559 202.099C242.45 202.583 243.251 201.209 242.361 200.713Z" fill="#5C41E8"/>
<path d="M246.509 209.861C227.115 194.198 200.15 191.59 177.74 202.176C170.486 205.598 163.907 210.268 158.078 215.752C157.328 216.451 158.46 217.571 159.198 216.871C168.908 207.761 180.781 201.082 193.914 198.473C205.494 196.17 217.622 197.175 228.668 201.361C234.712 203.652 240.375 206.922 245.389 210.98C246.178 211.629 247.311 210.51 246.509 209.861Z" fill="#5C41E8"/>
<path d="M207.034 200.649C197.528 200.305 188.047 202.214 179.432 206.285C170.028 210.739 162.062 217.647 155.801 225.918C155.177 226.732 156.564 227.521 157.175 226.719C169.035 211.082 187.258 201.514 207.034 202.239C208.065 202.277 208.065 200.687 207.034 200.649Z" fill="#5C41E8"/>
<path d="M249.665 220.587C242.73 213.131 234.14 207.418 224.532 203.995C223.565 203.652 223.145 205.191 224.112 205.535C233.453 208.856 241.788 214.467 248.545 221.719C249.233 222.47 250.352 221.337 249.665 220.587Z" fill="#5C41E8"/>
<path d="M251.536 232.419C243.328 219.467 230.398 209.772 215.229 206.807C200.697 203.957 185.477 207.52 173.655 216.426C166.07 222.139 160.127 229.684 155.826 238.107C155.355 239.01 156.729 239.824 157.2 238.908C164.339 224.963 176.238 213.601 191.534 209.288C205.163 205.446 219.976 207.672 232.015 215.065C239.408 219.607 245.542 225.918 250.174 233.234C250.709 234.073 252.096 233.285 251.536 232.419Z" fill="#5C41E8"/>
<path d="M252.261 247.408C247.807 230.829 235.311 217.444 218.627 212.863C202.453 208.423 184.981 212.94 172.777 224.378C164.289 232.33 158.829 242.929 155.724 254.049C155.444 255.042 156.984 255.462 157.264 254.469C162.252 236.567 174.049 220.319 192.425 214.734C207.467 210.153 224.366 213.678 236.214 224.047C243.379 230.32 248.278 238.679 250.734 247.827C250.989 248.82 252.528 248.4 252.261 247.408Z" fill="#5C41E8"/>
<path d="M161.069 264.673C161.667 252.866 165.065 240.868 173.12 231.91C179.547 224.76 188.416 220.243 197.91 218.92C207.072 217.635 216.667 219.276 224.888 223.538C233.351 227.928 240.235 235.117 243.824 243.998C247.744 253.693 246.955 264.037 245.287 274.19C245.02 275.819 244.918 277.422 245.186 279.064C245.351 280.069 246.878 279.649 246.725 278.644C246.356 276.392 246.929 274.152 247.26 271.938C247.591 269.686 247.858 267.409 248.036 265.144C248.303 261.747 248.405 258.324 248.125 254.914C247.883 251.848 247.222 248.922 246.255 246.008C243.124 236.593 236.621 228.641 228.133 223.538C219.938 218.602 210.152 216.337 200.62 217.062C190.847 217.8 181.43 221.706 174.291 228.475C165.752 236.555 161.349 247.853 159.949 259.355C159.733 261.136 159.593 262.918 159.504 264.712C159.427 265.704 161.018 265.704 161.069 264.673Z" fill="#5C41E8"/>
<path d="M242.055 286.189C241.482 283.758 240.719 281.074 240.91 278.555C241.037 276.951 241.253 275.336 241.419 273.732C241.737 270.679 242.042 267.625 242.31 264.571C242.513 262.358 242.806 260.08 242.755 257.854C242.73 256.836 241.139 256.823 241.164 257.854C241.215 260.08 240.923 262.358 240.719 264.571C240.439 267.714 240.121 270.857 239.803 273.987C239.637 275.565 239.395 277.155 239.306 278.745C239.166 281.328 239.93 284.102 240.528 286.596C240.757 287.601 242.284 287.181 242.055 286.189Z" fill="#5C41E8"/>
<path d="M167.025 268.223C167.317 251.492 173.477 233.73 189.485 226.045C201.549 220.243 216.54 221.91 227.128 230.066C233.465 234.951 237.767 241.911 239.65 249.66C239.892 250.652 241.432 250.232 241.19 249.24C237.716 234.951 226.097 224.111 211.603 221.592C197.07 219.06 182.423 225.192 174.075 237.356C167.89 246.364 165.625 257.446 165.434 268.223C165.421 269.241 167.012 269.241 167.025 268.223Z" fill="#5C41E8"/>
<path d="M172 292.067C173.018 292.067 173.031 290.476 172 290.476C170.97 290.476 170.97 292.067 172 292.067Z" fill="#5C41E8"/>
<path d="M238.008 290.426C234.051 277.066 239.154 263.096 236.367 249.571C235.145 243.667 232.269 238.298 227.662 234.353C223.208 230.549 217.736 228.233 211.997 227.203C203.026 225.587 193.252 226.757 185.77 232.203C178.834 237.254 174.889 244.736 172.458 252.79C168.679 265.322 168.73 278.72 171.224 291.482C171.415 292.487 172.955 292.067 172.764 291.062C170.55 279.738 170.321 267.943 173.057 256.683C174.889 249.1 177.943 241.415 183.721 235.956C190.109 229.926 198.393 227.648 207.123 228.182C219.34 228.933 230.971 235.6 234.343 247.929C238.199 262.001 232.32 276.773 236.481 290.833C236.774 291.825 238.301 291.418 238.008 290.426Z" fill="#5C41E8"/>
<path d="M176.34 258.388C174.673 271.544 175.843 284.954 177.167 298.098C177.269 299.103 178.859 299.116 178.758 298.098C177.434 284.954 176.251 271.557 177.93 258.388C178.058 257.37 176.467 257.383 176.34 258.388Z" fill="#5C41E8"/>
<path d="M234.458 294.764C228.833 289.344 228.973 280.972 230.208 273.821C231.531 266.187 233.618 258.502 231.302 250.843C227.472 238.196 214.962 229.747 201.804 231.452C194.817 232.356 188.276 235.817 184.026 241.478C183.415 242.293 184.79 243.094 185.4 242.28C193.354 231.694 209.477 229.9 219.989 237.547C225.092 241.249 228.833 246.848 230.233 253.006C232.027 260.92 229.164 268.796 228.197 276.621C227.357 283.402 228.184 290.935 233.338 295.897C234.063 296.596 235.196 295.477 234.458 294.764Z" fill="#5C41E8"/>
<path d="M229.508 296.953C224.392 291.914 223.768 284.496 224.545 277.715C224.99 273.783 225.804 269.89 226.377 265.971C226.899 262.459 227.637 258.897 227.37 255.322C226.517 243.769 215.153 236.109 204.234 236.071C194.563 236.033 187.042 243.374 183.224 251.683C182.143 254.036 181.646 256.657 181.315 259.215C180.526 265.157 180.819 271.162 181.354 277.104C182.13 285.616 182.906 294.128 183.492 302.666C183.555 303.683 185.146 303.683 185.082 302.666C184.675 296.584 184.128 290.515 183.606 284.446C182.741 274.585 180.972 263.783 184.026 254.1C186.355 246.695 192.743 239.786 200.442 238.043C211.45 235.549 224.914 243.654 225.804 255.334C226.11 259.431 225.194 263.617 224.557 267.651C223.934 271.608 223.119 275.526 222.801 279.522C222.279 286.163 223.488 293.237 228.413 298.085C229.113 298.798 230.233 297.678 229.508 296.953Z" fill="#5C41E8"/>
<path d="M226.161 301.609C218.614 292.716 218.665 280.985 220.74 270.093C221.847 264.266 224.277 258.019 222.343 252.103C220.93 247.751 217.278 244.494 213.13 242.789C204.603 239.303 193.634 242.598 189.18 250.843C186.966 254.953 186.317 259.851 185.96 264.444C185.655 268.35 185.655 272.282 185.833 276.201C186.291 286.354 187.284 297.322 191.521 306.673C191.941 307.602 193.316 306.801 192.896 305.872C189.193 297.691 188.187 288.161 187.602 279.28C187.067 271.328 186.813 262.803 189.154 255.118C191.992 245.817 202.186 240.868 211.424 243.858C216.146 245.385 220.243 249.1 221.223 254.087C222.368 259.927 219.785 266.111 218.831 271.837C217.036 282.702 217.635 293.988 225.054 302.742C225.703 303.518 226.822 302.386 226.161 301.609Z" fill="#5C41E8"/>
<path d="M222.089 305.337C219.213 299.561 216.337 293.695 214.708 287.41C213.893 284.267 213.41 281.023 213.486 277.766C213.562 274.47 214.364 271.353 215.255 268.198C216.642 263.261 217.915 257.93 215.598 253.044C213.511 248.642 208.701 246.771 204.044 247.586C198.292 248.604 194.41 253.477 192.68 258.782C192.361 259.762 193.901 260.169 194.219 259.202C195.785 254.418 199.271 250.003 204.476 249.112C209.872 248.196 214.25 251.543 215.14 256.836C216.069 262.358 213.422 267.651 212.417 272.969C211.424 278.198 211.984 283.542 213.41 288.644C215.102 294.739 217.915 300.464 220.727 306.114C221.172 307.055 222.534 306.254 222.089 305.337Z" fill="#5C41E8"/>
<path d="M196.765 285.54C197.974 294.662 202.02 302.945 205.52 311.343C205.902 312.272 207.441 311.865 207.06 310.923C203.624 302.691 199.539 294.484 198.355 285.54C198.215 284.535 196.625 284.522 196.765 285.54Z" fill="#5C41E8"/>
<path d="M216.438 307.31C211.361 298.976 208.434 289.446 208.039 279.7C207.836 274.852 208.256 269.992 209.312 265.259C210.152 261.505 211.666 256.416 207.747 253.782C203.802 251.123 200.137 255.22 198.661 258.592C198.253 259.52 199.628 260.335 200.035 259.393C200.938 257.319 202.644 254.393 205.291 254.558C209.121 254.8 208.981 259.622 208.396 262.256C207.238 267.523 206.347 272.676 206.423 278.097C206.563 288.67 209.592 299.09 215.089 308.124C215.598 308.989 216.973 308.188 216.438 307.31Z" fill="#5C41E8"/>
<path d="M212.175 308.34C203.458 293.95 201.868 276.862 204.769 260.538C204.947 259.533 203.42 259.113 203.229 260.118C200.251 276.862 201.855 294.383 210.801 309.142C211.335 310.02 212.71 309.231 212.175 308.34Z" fill="#5C41E8"/>
<path d="M198.801 309.027C189.893 290.629 191.521 265.259 191.547 265.004L192.819 265.093C192.807 265.348 191.191 290.387 199.946 308.48L198.801 309.027Z" fill="#5C41E8"/>
<path d="M197.719 261.416C195.645 267.74 195.072 274.42 195.988 281.01C196.128 282.015 197.655 281.596 197.528 280.59C196.663 274.292 197.286 267.88 199.259 261.836C199.564 260.856 198.037 260.436 197.719 261.416Z" fill="#5C41E8"/>
<path d="M192.107 260.984C192.056 261.263 192.005 261.556 191.954 261.836C191.916 261.938 191.916 262.052 191.942 262.154C191.942 262.256 191.98 262.358 192.031 262.447C192.082 262.536 192.145 262.612 192.234 262.676C192.311 262.752 192.4 262.79 192.502 262.816C192.565 262.828 192.641 262.828 192.718 262.841C192.858 262.841 192.998 262.803 193.125 262.727C193.176 262.688 193.227 262.638 193.29 262.599C193.392 262.498 193.456 262.383 193.494 262.243C193.545 261.963 193.596 261.671 193.647 261.391C193.685 261.289 193.685 261.174 193.66 261.073C193.66 260.971 193.621 260.869 193.57 260.78C193.52 260.691 193.456 260.615 193.367 260.551C193.29 260.475 193.201 260.436 193.1 260.411C193.023 260.398 192.96 260.385 192.883 260.385C192.743 260.385 192.603 260.424 192.476 260.5C192.425 260.538 192.374 260.576 192.311 260.627C192.209 260.729 192.145 260.844 192.107 260.984Z" fill="#5C41E8"/>
<path d="M181.926 243.705C179.636 246.339 177.905 249.405 176.862 252.739C176.556 253.718 178.096 254.138 178.401 253.159C179.356 250.092 180.946 247.255 183.046 244.825C183.721 244.061 182.601 242.942 181.926 243.705Z" fill="#5C41E8"/>
<path d="M241.266 252.802C241.317 253.235 241.368 253.655 241.419 254.087C241.419 254.202 241.432 254.304 241.483 254.393C241.521 254.495 241.572 254.571 241.648 254.647C241.788 254.787 242.017 254.889 242.208 254.876C242.412 254.864 242.628 254.8 242.768 254.647C242.895 254.507 243.022 254.291 242.997 254.087C242.946 253.668 242.895 253.235 242.844 252.802C242.844 252.688 242.831 252.586 242.781 252.497C242.742 252.395 242.691 252.319 242.615 252.243C242.475 252.103 242.246 252.001 242.055 252.014C241.852 252.026 241.635 252.09 241.495 252.243C241.368 252.395 241.241 252.599 241.266 252.802Z" fill="#5C41E8"/>
<path d="M221.401 202.99C217.927 201.832 214.288 201.323 210.661 200.903C210.228 200.852 209.859 201.31 209.859 201.705C209.859 202.176 210.228 202.456 210.661 202.506C214.148 202.914 217.635 203.423 220.981 204.529C221.949 204.86 222.368 203.321 221.401 202.99Z" fill="#5C41E8"/>
<path d="M165.103 274.483C165.128 277.066 165.332 279.636 165.688 282.193C165.752 282.613 166.286 282.855 166.668 282.753C167.126 282.626 167.279 282.206 167.228 281.774C166.885 279.356 166.719 276.926 166.706 274.483C166.681 273.465 165.09 273.452 165.103 274.483Z" fill="#5C41E8"/>
<path d="M159.007 269.636C158.969 270.144 158.931 270.666 158.893 271.175C158.88 271.366 158.995 271.608 159.122 271.735C159.262 271.875 159.491 271.977 159.682 271.964C159.885 271.951 160.102 271.888 160.242 271.735C160.394 271.569 160.458 271.391 160.471 271.175C160.509 270.666 160.547 270.144 160.585 269.636C160.598 269.445 160.484 269.203 160.356 269.076C160.216 268.936 159.987 268.834 159.796 268.847C159.593 268.859 159.376 268.923 159.236 269.076C159.096 269.228 159.02 269.406 159.007 269.636Z" fill="#5C41E8"/>
<path d="M174.647 181.373C175.882 180.813 177.129 180.266 178.363 179.706C178.745 179.541 178.859 178.955 178.643 178.625C178.389 178.23 177.956 178.154 177.549 178.345C176.314 178.904 175.067 179.452 173.833 180.011C173.451 180.177 173.337 180.762 173.553 181.106C173.807 181.475 174.24 181.551 174.647 181.373Z" fill="#5C41E8"/>
<path d="M251.205 251.097C251.994 253.947 252.312 256.887 252.159 259.838C252.108 260.856 253.699 260.856 253.75 259.838C253.915 256.747 253.559 253.655 252.745 250.665C252.465 249.698 250.938 250.105 251.205 251.097Z" fill="#5C41E8"/>
<path d="M252.554 235.918C252.808 236.771 253.063 237.623 253.317 238.476C253.432 238.87 253.877 239.163 254.297 239.036C254.705 238.908 254.985 238.488 254.857 238.056C254.603 237.203 254.348 236.351 254.094 235.498C253.979 235.104 253.534 234.811 253.114 234.939C252.707 235.066 252.427 235.486 252.554 235.918Z" fill="#5C41E8"/>
<path d="M297.552 239.506C297.552 239.506 297.514 238.997 297.488 238.005C297.425 237.013 297.463 235.537 297.285 233.615C297.056 229.773 296.407 224.085 294.65 216.973C293.709 213.436 292.563 209.517 290.858 205.395C289.191 201.272 287.142 196.87 284.432 192.417C279.1 183.51 271.439 174.21 261.016 166.257C255.824 162.275 249.932 158.7 243.43 155.761C236.927 152.809 229.839 150.442 222.267 149.081C214.708 147.694 206.716 147.134 198.546 147.783C194.461 148.025 190.351 148.686 186.215 149.513C182.092 150.391 177.994 151.575 173.922 153.025C157.697 158.903 142.273 169.871 131.164 185.088C128.351 188.854 125.882 192.926 123.668 197.15C122.536 199.262 121.568 201.45 120.576 203.652C119.685 205.891 118.769 208.13 118.043 210.446C114.938 219.645 113.399 229.493 113.335 239.468C113.386 249.443 114.926 259.291 118.031 268.503C118.769 270.819 119.685 273.058 120.563 275.297C121.556 277.499 122.523 279.7 123.655 281.799C125.882 286.023 128.339 290.095 131.151 293.874C142.26 309.091 157.684 320.071 173.909 325.949C177.981 327.4 182.092 328.57 186.215 329.461C190.338 330.275 194.461 330.95 198.546 331.192C206.716 331.828 214.72 331.281 222.267 329.894C229.839 328.532 236.939 326.166 243.43 323.214C249.932 320.262 255.824 316.687 261.016 312.704C271.439 304.765 279.087 295.451 284.419 286.545C287.117 282.104 289.178 277.702 290.845 273.567C292.551 269.445 293.696 265.526 294.638 262.001C296.394 254.889 297.043 249.214 297.285 245.359C297.463 243.438 297.425 241.962 297.488 240.97C297.526 240.003 297.552 239.506 297.552 239.506C297.552 239.506 297.603 241.542 297.412 245.397C297.221 249.252 296.61 254.953 294.892 262.09C293.963 265.64 292.831 269.572 291.151 273.72C289.497 277.868 287.448 282.295 284.75 286.761C279.418 295.719 271.77 305.096 261.309 313.099C256.104 317.107 250.187 320.72 243.646 323.697C237.118 326.675 229.979 329.067 222.369 330.454C214.771 331.866 206.716 332.426 198.495 331.802C194.385 331.561 190.236 330.899 186.088 330.085C181.939 329.207 177.803 328.011 173.706 326.56C157.366 320.657 141.828 309.613 130.629 294.294C127.791 290.502 125.31 286.392 123.07 282.143C121.925 280.018 120.958 277.804 119.965 275.59C119.074 273.338 118.145 271.073 117.407 268.745C114.277 259.469 112.724 249.545 112.673 239.506C112.724 229.468 114.289 219.543 117.42 210.281C118.158 207.952 119.087 205.687 119.978 203.435C120.97 201.221 121.95 199.008 123.083 196.883C125.323 192.62 127.804 188.523 130.642 184.732C141.84 169.413 157.366 158.369 173.718 152.478C177.816 151.027 181.952 149.844 186.1 148.953C190.249 148.139 194.398 147.465 198.508 147.236C206.729 146.6 214.771 147.172 222.369 148.585C229.979 149.971 237.118 152.363 243.646 155.328C250.174 158.305 256.104 161.906 261.309 165.927C271.77 173.93 279.431 183.307 284.75 192.264C287.448 196.743 289.497 201.158 291.151 205.306C292.843 209.441 293.976 213.385 294.905 216.935C296.636 224.073 297.234 229.773 297.425 233.628C297.603 237.471 297.552 239.506 297.552 239.506Z" fill="#444444"/>
<path d="M205.278 341.587C148.292 341.587 101.933 295.235 101.933 238.259C101.933 181.284 148.292 134.932 205.278 134.932C206.334 134.932 207.187 135.785 207.187 136.841C207.187 137.897 206.334 138.749 205.278 138.749C150.405 138.749 105.75 183.383 105.75 238.259C105.75 293.136 150.392 337.77 205.278 337.77C260.151 337.77 304.806 293.136 304.806 238.259C304.806 237.203 305.658 236.351 306.714 236.351C307.771 236.351 308.623 237.203 308.623 238.259C308.623 295.235 262.264 341.587 205.278 341.587Z" fill="#444444"/>
</svg>
