<svg width="38" height="38" viewBox="0 0 38 38" fill="none" xmlns="http://www.w3.org/2000/svg">
<path d="M30.4 19.2787C30.4 18.4934 30.324 17.6827 30.1974 16.9227H19.228V21.4067H25.5107C25.2574 22.8507 24.4214 24.1174 23.18 24.9281L26.9294 27.8414C29.1334 25.7894 30.4 22.8001 30.4 19.2787Z" fill="#4280EF"/>
<path d="M19.2282 30.628C22.3696 30.628 25.0042 29.5893 26.9296 27.816L23.1802 24.928C22.1416 25.6373 20.7989 26.0426 19.2282 26.0426C16.1882 26.0426 13.6296 23.9906 12.6922 21.2546L8.84155 24.2186C10.8176 28.1453 14.8202 30.628 19.2282 30.628Z" fill="#34A353"/>
<path d="M12.6921 21.2294C12.2108 19.7854 12.2108 18.2147 12.6921 16.7707L8.84145 13.7814C7.19478 17.0747 7.19478 20.9507 8.84145 24.2187L12.6921 21.2294Z" fill="#F6B704"/>
<path d="M19.2282 11.9827C20.8749 11.9574 22.4962 12.5907 23.6869 13.7307L27.0056 10.3867C24.9029 8.41069 22.1162 7.34669 19.2282 7.37202C14.8202 7.37202 10.8176 9.85469 8.84155 13.7814L12.6922 16.7707C13.6296 14.0094 16.1882 11.9827 19.2282 11.9827Z" fill="#E54335"/>
</svg>
