<svg width="26" height="26" viewBox="0 0 26 26" fill="none" xmlns="http://www.w3.org/2000/svg">
<path d="M6.5 8.66671L6.5 17.3334H15.1667V8.66671H6.5Z" fill="white"/>
<path d="M1.625 9.20829V16.7916L4.33333 17.3333L7.04167 16.7916V9.20829L4.33333 8.66663L1.625 9.20829Z" fill="#1E88E5"/>
<path d="M20.0417 13V20.5834C20.0417 21.4809 19.3142 22.2084 18.4167 22.2084H7.04167L6.5 19.5L7.04167 16.7917H14.625V13L17.3333 12.4584L20.0417 13Z" fill="#4CAF50"/>
<path d="M20.0417 5.41663V13H14.625V9.20829H7.04167L6.5 6.49996L7.04167 3.79163H18.4167C19.3142 3.79163 20.0417 4.51908 20.0417 5.41663Z" fill="#FBC02D"/>
<path d="M7.04167 16.7916V22.2083H3.25C2.35246 22.2083 1.625 21.4808 1.625 20.5833V16.7916H7.04167Z" fill="#1565C0"/>
<path d="M7.04167 3.79163V9.20829H1.625L7.04167 3.79163Z" fill="#E53935"/>
<path d="M20.5833 13.0001L20.0417 17.5771L14.625 13.0001L20.0417 8.42297L20.5833 13.0001Z" fill="#2E7D32"/>
<path d="M24.9167 5.4763V20.5238C24.9167 20.9788 24.3859 21.2334 24.0338 20.9463L20.0417 17.5771V8.42297L24.0338 5.0538C24.3859 4.76672 24.9167 5.0213 24.9167 5.4763Z" fill="#4CAF50"/>
</svg>
