<svg width="24" height="24" viewBox="0 0 24 24" fill="none" xmlns="http://www.w3.org/2000/svg">
<path d="M20.75 0.750977H3.25C1.86875 0.750977 0.75 1.86973 0.75 3.25098V20.751C0.75 22.1322 1.86875 23.251 3.25 23.251H20.75C22.1313 23.251 23.25 22.1322 23.25 20.751V3.25098C23.25 1.86973 22.1313 0.750977 20.75 0.750977ZM8.25 18.251H5.09625V9.50098H8.25V18.251ZM6.6175 7.89723C5.65375 7.89723 5.01 7.25473 5.01 6.39723C5.01 5.53973 5.6525 4.89723 6.72375 4.89723C7.6875 4.89723 8.33125 5.53973 8.33125 6.39723C8.33125 7.25473 7.68875 7.89723 6.6175 7.89723ZM19.5 18.251H16.4475V13.4685C16.4475 12.146 15.6337 11.841 15.3288 11.841C15.0238 11.841 14.0062 12.0447 14.0062 13.4685C14.0062 13.6722 14.0062 18.251 14.0062 18.251H10.8525V9.50098H14.0062V10.7222C14.4125 10.0097 15.2262 9.50098 16.7525 9.50098C18.2787 9.50098 19.5 10.7222 19.5 13.4685V18.251Z" fill="#222222"/>
</svg>
