<svg width="281" height="45" viewBox="0 0 281 45" fill="none" xmlns="http://www.w3.org/2000/svg">
<path d="M70.728 35.2225C69.2347 35.2225 67.8907 34.9665 66.696 34.4545C65.5013 33.9212 64.5627 33.1745 63.88 32.2145C63.1973 31.2545 62.856 30.1345 62.856 28.8545H66.76C66.8453 29.8145 67.2187 30.6039 67.88 31.2225C68.5627 31.8412 69.512 32.1505 70.728 32.1505C71.9867 32.1505 72.968 31.8519 73.672 31.2545C74.376 30.6359 74.728 29.8465 74.728 28.8865C74.728 28.1399 74.504 27.5319 74.056 27.0625C73.6293 26.5932 73.0853 26.2305 72.424 25.9745C71.784 25.7185 70.888 25.4412 69.736 25.1425C68.2853 24.7585 67.1013 24.3745 66.184 23.9905C65.288 23.5852 64.52 22.9665 63.88 22.1345C63.24 21.3025 62.92 20.1932 62.92 18.8065C62.92 17.5265 63.24 16.4065 63.88 15.4465C64.52 14.4865 65.416 13.7505 66.568 13.2385C67.72 12.7265 69.0533 12.4705 70.568 12.4705C72.7227 12.4705 74.4827 13.0145 75.848 14.1025C77.2347 15.1692 78.0027 16.6412 78.152 18.5185H74.12C74.056 17.7079 73.672 17.0145 72.968 16.4385C72.264 15.8625 71.336 15.5745 70.184 15.5745C69.1387 15.5745 68.2853 15.8412 67.624 16.3745C66.9627 16.9079 66.632 17.6759 66.632 18.6785C66.632 19.3612 66.8347 19.9265 67.24 20.3745C67.6667 20.8012 68.2 21.1425 68.84 21.3985C69.48 21.6545 70.3547 21.9319 71.464 22.2305C72.936 22.6359 74.1307 23.0412 75.048 23.4465C75.9867 23.8519 76.776 24.4812 77.416 25.3345C78.0773 26.1665 78.408 27.2865 78.408 28.6945C78.408 29.8252 78.0987 30.8919 77.48 31.8945C76.8827 32.8972 75.9973 33.7079 74.824 34.3265C73.672 34.9239 72.3067 35.2225 70.728 35.2225ZM80.5365 26.1025C80.5365 24.3319 80.8992 22.7639 81.6245 21.3985C82.3712 20.0332 83.3738 18.9772 84.6325 18.2305C85.9125 17.4625 87.3205 17.0785 88.8565 17.0785C90.2432 17.0785 91.4485 17.3559 92.4725 17.9105C93.5178 18.4439 94.3498 19.1159 94.9685 19.9265V17.3665H98.6485V34.9985H94.9685V32.3745C94.3498 33.2065 93.5072 33.8999 92.4405 34.4545C91.3738 35.0092 90.1578 35.2865 88.7925 35.2865C87.2778 35.2865 85.8912 34.9025 84.6325 34.1345C83.3738 33.3452 82.3712 32.2572 81.6245 30.8705C80.8992 29.4625 80.5365 27.8732 80.5365 26.1025ZM94.9685 26.1665C94.9685 24.9505 94.7125 23.8945 94.2005 22.9985C93.7098 22.1025 93.0592 21.4199 92.2485 20.9505C91.4378 20.4812 90.5632 20.2465 89.6245 20.2465C88.6858 20.2465 87.8112 20.4812 87.0005 20.9505C86.1898 21.3985 85.5285 22.0705 85.0165 22.9665C84.5258 23.8412 84.2805 24.8865 84.2805 26.1025C84.2805 27.3185 84.5258 28.3852 85.0165 29.3025C85.5285 30.2199 86.1898 30.9239 87.0005 31.4145C87.8325 31.8839 88.7072 32.1185 89.6245 32.1185C90.5632 32.1185 91.4378 31.8839 92.2485 31.4145C93.0592 30.9452 93.7098 30.2625 94.2005 29.3665C94.7125 28.4492 94.9685 27.3825 94.9685 26.1665ZM106.128 11.3185V34.9985H102.48V11.3185H106.128ZM126.118 25.7505C126.118 26.4119 126.075 27.0092 125.99 27.5425H112.517C112.624 28.9505 113.147 30.0812 114.085 30.9345C115.024 31.7879 116.176 32.2145 117.541 32.2145C119.504 32.2145 120.891 31.3932 121.701 29.7505H125.637C125.104 31.3719 124.133 32.7052 122.726 33.7505C121.339 34.7745 119.611 35.2865 117.541 35.2865C115.856 35.2865 114.341 34.9132 112.997 34.1665C111.675 33.3985 110.629 32.3319 109.861 30.9665C109.115 29.5799 108.741 27.9799 108.741 26.1665C108.741 24.3532 109.104 22.7639 109.829 21.3985C110.576 20.0119 111.611 18.9452 112.933 18.1985C114.277 17.4519 115.813 17.0785 117.541 17.0785C119.205 17.0785 120.688 17.4412 121.99 18.1665C123.291 18.8919 124.304 19.9159 125.029 21.2385C125.755 22.5399 126.118 24.0439 126.118 25.7505ZM122.309 24.5985C122.288 23.2545 121.808 22.1772 120.869 21.3665C119.931 20.5559 118.768 20.1505 117.381 20.1505C116.123 20.1505 115.045 20.5559 114.149 21.3665C113.253 22.1559 112.72 23.2332 112.549 24.5985H122.309ZM135.148 35.2865C133.761 35.2865 132.513 35.0412 131.404 34.5505C130.316 34.0385 129.452 33.3559 128.812 32.5025C128.172 31.6279 127.83 30.6572 127.788 29.5905H131.564C131.628 30.3372 131.98 30.9665 132.62 31.4785C133.281 31.9692 134.102 32.2145 135.084 32.2145C136.108 32.2145 136.897 32.0225 137.452 31.6385C138.028 31.2332 138.316 30.7212 138.316 30.1025C138.316 29.4412 137.996 28.9505 137.356 28.6305C136.737 28.3105 135.745 27.9585 134.38 27.5745C133.057 27.2119 131.98 26.8599 131.148 26.5185C130.316 26.1772 129.59 25.6545 128.972 24.9505C128.374 24.2465 128.076 23.3185 128.076 22.1665C128.076 21.2279 128.353 20.3745 128.908 19.6065C129.462 18.8172 130.252 18.1985 131.276 17.7505C132.321 17.3025 133.516 17.0785 134.86 17.0785C136.865 17.0785 138.476 17.5905 139.692 18.6145C140.929 19.6172 141.59 20.9932 141.676 22.7425H138.028C137.964 21.9532 137.644 21.3239 137.068 20.8545C136.492 20.3852 135.713 20.1505 134.732 20.1505C133.772 20.1505 133.036 20.3319 132.524 20.6945C132.012 21.0572 131.756 21.5372 131.756 22.1345C131.756 22.6039 131.926 22.9985 132.268 23.3185C132.609 23.6385 133.025 23.8945 133.516 24.0865C134.006 24.2572 134.732 24.4812 135.692 24.7585C136.972 25.0999 138.017 25.4519 138.828 25.8145C139.66 26.1559 140.374 26.6679 140.972 27.3505C141.569 28.0332 141.878 28.9399 141.9 30.0705C141.9 31.0732 141.622 31.9692 141.068 32.7585C140.513 33.5479 139.724 34.1665 138.7 34.6145C137.697 35.0625 136.513 35.2865 135.148 35.2865Z" fill="#222222"/>
<path d="M160.52 29.6865H150.344L148.392 34.9985H146.024L154.184 12.9185H156.712L164.84 34.9985H162.472L160.52 29.6865ZM159.848 27.8305L155.432 15.7345L151.016 27.8305H159.848ZM174.803 17.2705C176.446 17.2705 177.875 17.6545 179.091 18.4225C180.307 19.1905 181.182 20.1612 181.715 21.3345V17.5265H183.955V35.4465C183.955 37.0465 183.603 38.4652 182.899 39.7025C182.216 40.9399 181.256 41.8892 180.019 42.5505C178.782 43.2332 177.374 43.5745 175.795 43.5745C173.555 43.5745 171.688 43.0412 170.195 41.9745C168.723 40.9079 167.806 39.4572 167.443 37.6225H169.651C170.035 38.8385 170.76 39.8092 171.827 40.5345C172.915 41.2599 174.238 41.6225 175.795 41.6225C176.926 41.6225 177.939 41.3772 178.835 40.8865C179.731 40.4172 180.435 39.7132 180.947 38.7745C181.459 37.8359 181.715 36.7265 181.715 35.4465V31.1265C181.16 32.3212 180.275 33.3132 179.059 34.1025C177.864 34.8705 176.446 35.2545 174.803 35.2545C173.203 35.2545 171.763 34.8812 170.483 34.1345C169.224 33.3879 168.232 32.3319 167.507 30.9665C166.803 29.6012 166.451 28.0225 166.451 26.2305C166.451 24.4385 166.803 22.8705 167.507 21.5265C168.232 20.1612 169.224 19.1159 170.483 18.3905C171.763 17.6439 173.203 17.2705 174.803 17.2705ZM181.715 26.2625C181.715 24.8545 181.427 23.6172 180.851 22.5505C180.275 21.4839 179.486 20.6625 178.483 20.0865C177.502 19.5105 176.414 19.2225 175.219 19.2225C173.982 19.2225 172.872 19.4999 171.891 20.0545C170.91 20.6092 170.131 21.4199 169.555 22.4865C169 23.5319 168.723 24.7799 168.723 26.2305C168.723 27.6599 169 28.9185 169.555 30.0065C170.131 31.0732 170.91 31.8945 171.891 32.4705C172.872 33.0252 173.982 33.3025 175.219 33.3025C176.414 33.3025 177.502 33.0145 178.483 32.4385C179.486 31.8625 180.275 31.0412 180.851 29.9745C181.427 28.9079 181.715 27.6705 181.715 26.2625ZM203.917 25.3665C203.917 26.1345 203.895 26.7212 203.853 27.1265H189.357C189.421 28.4492 189.741 29.5799 190.317 30.5185C190.893 31.4572 191.65 32.1719 192.589 32.6625C193.527 33.1319 194.551 33.3665 195.661 33.3665C197.111 33.3665 198.327 33.0145 199.309 32.3105C200.311 31.6065 200.973 30.6572 201.293 29.4625H203.661C203.234 31.1692 202.317 32.5665 200.909 33.6545C199.522 34.7212 197.773 35.2545 195.661 35.2545C194.018 35.2545 192.546 34.8919 191.245 34.1665C189.943 33.4199 188.919 32.3745 188.173 31.0305C187.447 29.6652 187.085 28.0759 187.085 26.2625C187.085 24.4492 187.447 22.8599 188.173 21.4945C188.898 20.1292 189.911 19.0839 191.213 18.3585C192.514 17.6332 193.997 17.2705 195.661 17.2705C197.325 17.2705 198.775 17.6332 200.013 18.3585C201.271 19.0839 202.231 20.0652 202.893 21.3025C203.575 22.5185 203.917 23.8732 203.917 25.3665ZM201.645 25.3025C201.666 24.0012 201.399 22.8919 200.845 21.9745C200.311 21.0572 199.575 20.3639 198.637 19.8945C197.698 19.4252 196.674 19.1905 195.565 19.1905C193.901 19.1905 192.482 19.7239 191.309 20.7905C190.135 21.8572 189.485 23.3612 189.357 25.3025H201.645ZM215.247 17.2065C217.338 17.2065 219.044 17.8572 220.367 19.1585C221.69 20.4385 222.351 22.3052 222.351 24.7585V34.9985H220.143V25.0145C220.143 23.1159 219.663 21.6652 218.703 20.6625C217.764 19.6599 216.474 19.1585 214.831 19.1585C213.146 19.1585 211.802 19.6919 210.799 20.7585C209.796 21.8252 209.295 23.3932 209.295 25.4625V34.9985H207.055V17.5265H209.295V20.5025C209.85 19.4359 210.65 18.6252 211.695 18.0705C212.74 17.4945 213.924 17.2065 215.247 17.2065ZM229.257 19.4145V30.2625C229.257 31.3292 229.46 32.0652 229.865 32.4705C230.27 32.8759 230.985 33.0785 232.009 33.0785H234.057V34.9985H231.657C230.078 34.9985 228.905 34.6359 228.137 33.9105C227.369 33.1639 226.985 31.9479 226.985 30.2625V19.4145H224.553V17.5265H226.985V13.1425H229.257V17.5265H234.057V19.4145H229.257ZM242.807 35.2545C240.802 35.2545 239.159 34.7959 237.879 33.8785C236.621 32.9399 235.917 31.6705 235.767 30.0705H238.071C238.178 31.0519 238.637 31.8519 239.447 32.4705C240.279 33.0679 241.389 33.3665 242.775 33.3665C243.991 33.3665 244.941 33.0785 245.623 32.5025C246.327 31.9265 246.679 31.2119 246.679 30.3585C246.679 29.7612 246.487 29.2705 246.103 28.8865C245.719 28.5025 245.229 28.2039 244.631 27.9905C244.055 27.7559 243.266 27.5105 242.263 27.2545C240.962 26.9132 239.906 26.5719 239.095 26.2305C238.285 25.8892 237.591 25.3879 237.015 24.7265C236.461 24.0439 236.183 23.1372 236.183 22.0065C236.183 21.1532 236.439 20.3639 236.951 19.6385C237.463 18.9132 238.189 18.3372 239.127 17.9105C240.066 17.4839 241.133 17.2705 242.327 17.2705C244.205 17.2705 245.719 17.7505 246.871 18.7105C248.023 19.6492 248.642 20.9505 248.727 22.6145H246.487C246.423 21.5905 246.018 20.7692 245.271 20.1505C244.546 19.5105 243.543 19.1905 242.263 19.1905C241.133 19.1905 240.215 19.4572 239.511 19.9905C238.807 20.5239 238.455 21.1852 238.455 21.9745C238.455 22.6572 238.658 23.2225 239.063 23.6705C239.49 24.0972 240.013 24.4385 240.631 24.6945C241.25 24.9292 242.082 25.1959 243.127 25.4945C244.386 25.8359 245.389 26.1665 246.135 26.4865C246.882 26.8065 247.522 27.2759 248.055 27.8945C248.589 28.5132 248.866 29.3345 248.887 30.3585C248.887 31.2972 248.631 32.1399 248.119 32.8865C247.607 33.6119 246.893 34.1879 245.975 34.6145C245.058 35.0412 244.002 35.2545 242.807 35.2545Z" fill="#222222"/>
<path d="M39.4483 7.94002C32.4816 22.744 8.68446 30.1091 3.01415 30.3687C23.5631 30.2848 42.5066 16.0503 45.5328 10.2132L49.8401 12.4403L45.6697 0.58189L34.7696 6.21263L39.4483 7.94002Z" fill="#2666D5"/>
<path fill-rule="evenodd" clip-rule="evenodd" d="M36.5985 20.7683C39.6388 18.6289 42.117 16.4363 43.7707 14.4759V38.5496C43.6094 40.0807 41.469 40.8657 40.4296 40.9102C38.1487 40.9102 36.5985 39.6429 36.5985 38.9059L36.5985 20.7683ZM29.8999 16.9824V16.0246H22.7524L16.5816 21.4558H22.7524V21.8884C25.2295 20.4692 27.6535 18.8418 29.8999 16.9824ZM22.7524 28.1076C25.241 27.1619 27.6438 26.0583 29.8999 24.8631V38.5507C29.8999 40.3314 27.4103 40.9578 26.3745 41.0023C24.1015 41.0023 22.7524 39.7119 22.7524 38.9068V28.1076ZM15.3364 25.5243V21.7381H8.1889L2.01807 27.1692H8.1889V28.1145C10.4116 27.4248 12.8376 26.5698 15.3364 25.5243ZM8.1889 31.327C10.5626 31.2213 12.9606 30.8789 15.3364 30.3506V38.5497C15.3364 40.3304 12.8468 40.9568 11.811 41.0013C9.53798 41.0013 8.1889 39.7109 8.1889 38.9058V31.327ZM23.261 10.4255C23.261 12.3216 24.7878 13.8587 26.6712 13.8587C28.5546 13.8587 30.0815 12.3216 30.0815 10.4255C30.0815 8.52932 28.5546 6.99219 26.6712 6.99219C24.7878 6.99219 23.261 8.52932 23.261 10.4255ZM11.9041 19.434C10.008 19.434 8.47083 17.9072 8.47083 16.0238C8.47083 14.1403 10.008 12.6135 11.9041 12.6135C13.8003 12.6135 15.3374 14.1403 15.3374 16.0238C15.3374 17.9072 13.8003 19.434 11.9041 19.434Z" fill="#2666D5"/>
</svg>
