<svg width="74" height="74" viewBox="0 0 74 74" fill="none" xmlns="http://www.w3.org/2000/svg">
<rect width="74" height="74" rx="37" fill="#EEF5FF"/>
<path d="M31.2766 19C24.511 19 19 24.5109 19 31.2768C19 38.0426 24.511 43.5535 31.2766 43.5535C34.2374 43.5535 36.9577 42.4984 39.0812 40.7442L52.9015 54.6381C53.1312 54.869 53.4432 54.9992 53.7689 55C54.0946 55.0008 54.4072 54.8723 54.6381 54.6426C54.869 54.4129 54.9992 54.1008 55 53.7751C55.0008 53.4494 54.8722 53.1368 54.6425 52.9059L40.8086 38.9992C42.523 36.8876 43.5532 34.2001 43.5532 31.2768C43.5532 24.5109 38.0423 19 31.2766 19ZM31.2766 21.4553C36.7153 21.4553 41.0979 25.8379 41.0979 31.2768C41.0979 36.7156 36.7153 41.0982 31.2766 41.0982C25.8379 41.0982 21.4553 36.7156 21.4553 31.2768C21.4553 25.8379 25.8379 21.4553 31.2766 21.4553ZM31.2724 23.1029C29.3717 23.1029 27.5296 23.7649 26.0638 24.975C25.9377 25.077 25.833 25.203 25.7559 25.3457C25.6788 25.4884 25.6307 25.645 25.6145 25.8064C25.5983 25.9678 25.6142 26.1308 25.6614 26.2861C25.7085 26.4413 25.786 26.5856 25.8893 26.7107C25.9926 26.8358 26.1196 26.9392 26.2631 27.0148C26.4066 27.0905 26.5636 27.137 26.7252 27.1516C26.8867 27.1662 27.0496 27.1487 27.2043 27.1C27.359 27.0512 27.5026 26.9723 27.6266 26.8678C28.653 26.0205 29.9415 25.5574 31.2724 25.5575C32.603 25.5575 33.8912 26.0201 34.9175 26.867C35.0412 26.974 35.1851 27.0552 35.3406 27.1058C35.4962 27.1564 35.6603 27.1754 35.8232 27.1617C35.9862 27.148 36.1449 27.1019 36.2898 27.026C36.4347 26.9501 36.5629 26.846 36.6671 26.7199C36.7712 26.5937 36.849 26.448 36.896 26.2913C36.943 26.1347 36.9582 25.9702 36.9408 25.8075C36.9233 25.6449 36.8735 25.4874 36.7943 25.3443C36.7151 25.2012 36.608 25.0753 36.4795 24.9742C35.0139 23.7647 33.1726 23.1029 31.2724 23.1029Z" fill="#2965D5"/>
</svg>
