<svg width="74" height="74" viewBox="0 0 74 74" fill="none" xmlns="http://www.w3.org/2000/svg">
<rect width="74" height="74" rx="37" fill="#EEF5FF"/>
<path d="M36.5844 16.5064C37.8374 18.0734 39.027 19.6403 39.9122 21.5242C39.4002 21.712 38.8885 21.8786 38.2783 21.9863C37.8089 22.0695 37.2771 22.1184 36.7341 22.1184C36.3743 22.1184 36.0126 22.097 35.6634 22.0506C34.8588 21.9444 34.099 21.7049 33.3005 21.4385C34.1806 19.593 35.352 18.0496 36.5844 16.5064ZM36.6055 25.5568C37.784 25.5568 38.7392 26.512 38.7392 27.6904C38.7392 28.8689 37.7839 29.824 36.6055 29.824C35.4271 29.824 34.4719 28.8688 34.4719 27.6904C34.4719 26.5119 35.4271 25.5568 36.6055 25.5568ZM36.6055 24.4801C34.8323 24.4797 33.3951 25.9172 33.3948 27.6905C33.3948 29.4637 34.8323 30.9009 36.6055 30.9012C38.3788 30.9009 39.816 29.4637 39.816 27.6905C39.816 25.9172 38.3788 24.4797 36.6055 24.4801ZM36.6055 33.1711C36.3081 33.1711 36.0673 33.4119 36.067 33.7093V39.3773C36.067 39.6747 36.3081 39.9158 36.6055 39.9158C36.9026 39.9158 37.1437 39.6747 37.1437 39.3773V33.7102C37.1441 33.4128 36.9033 33.1713 36.6058 33.171L36.6055 33.1711ZM32.8694 22.4301C33.6966 22.7074 34.5755 22.9936 35.522 23.1186C35.923 23.1717 36.3324 23.1957 36.7341 23.1957C37.3391 23.1957 37.9336 23.1413 38.466 23.047C39.1859 22.9197 39.7845 22.7198 40.3369 22.5161C40.5681 23.1129 40.7683 23.7428 40.9314 24.4145C41.8101 28.0323 41.6202 32.8877 41.4296 35.6794C41.2812 37.8495 41.1395 38.6813 41.0046 39.222H41.0043L40.4069 39.2514C40.1751 39.2626 39.9723 39.4113 39.8917 39.6291L39.5003 40.6867L36.7663 40.6899L33.6736 40.6883L33.2774 39.623C33.1959 39.4036 32.9906 39.2549 32.7568 39.246L32.1655 39.223C32.0315 38.679 31.8911 37.8437 31.7434 35.6774C31.5534 32.8859 31.3638 28.0311 32.2419 24.4141C32.4127 23.7109 32.6244 23.0527 32.8694 22.4304V22.4301ZM42.6377 34.9419L44.3694 36.576L43.1996 42.2677L42.0845 39.6741H42.0842C42.2543 39.0448 42.418 38.2149 42.5862 35.7579C42.6035 35.5037 42.6211 35.2306 42.6377 34.9419ZM30.5378 34.9793C30.5538 35.2537 30.5704 35.5133 30.587 35.7557C30.7591 38.2831 30.9263 39.0908 31.1003 39.7298L30.004 42.2699L28.8413 36.5766L30.5378 34.9793ZM39.4613 41.8459L39.6778 42.4874L33.5505 42.4871L33.8064 41.8475L36.5927 41.8488C36.5985 41.8491 36.6045 41.8491 36.6103 41.8491H36.6109L36.7667 41.8488L36.9915 41.8491H36.9918C36.9989 41.8491 37.0062 41.8488 37.0132 41.8484L39.4613 41.8459ZM36.5838 15C36.4083 15 36.2423 15.0796 36.1323 15.2168C34.1346 17.7029 32.051 20.2855 31.1151 24.1403C30.399 27.0901 30.3613 30.7639 30.4688 33.5649L27.8842 35.9986C27.7483 36.1265 27.6882 36.3155 27.7256 36.4984L29.292 44.1648C29.339 44.3954 29.5302 44.5684 29.764 44.5927C29.7828 44.5946 29.8011 44.5956 29.8196 44.5956C30.0326 44.5956 30.228 44.4693 30.3137 44.2704L31.9939 40.376L32.3252 40.3891L32.7275 41.4696C32.738 41.4981 32.7505 41.5253 32.7649 41.5512L32.2551 42.8258C32.1889 42.9918 32.2091 43.1799 32.3092 43.3279C32.4093 43.4757 32.5765 43.5642 32.755 43.5642H40.4278C40.6011 43.5642 40.7639 43.4808 40.8653 43.3401C40.9663 43.199 40.9935 43.018 40.9379 42.8537L40.4595 41.4347L40.8458 40.3903L41.2123 40.3724L42.8874 44.2678C42.9731 44.467 43.1685 44.5937 43.3818 44.5937C43.4 44.5937 43.4182 44.5927 43.4368 44.5908C43.6709 44.5671 43.8621 44.3938 43.9094 44.1635L45.4847 36.4987C45.5224 36.3161 45.4626 36.1268 45.3267 35.9986L42.706 33.5253V33.5256C42.8118 30.7293 42.7709 27.0763 42.0578 24.1403C41.1211 20.2849 39.0354 17.7025 37.0357 15.2168C36.9257 15.0799 36.7597 15.0003 36.5842 15.0003L36.5838 15ZM34.1806 44.1316V44.1319C33.8813 44.1319 33.6392 44.3743 33.6392 44.6733L33.6389 48.2857C33.6389 48.5847 33.8816 48.8271 34.1806 48.8271C34.4796 48.8271 34.722 48.5847 34.722 48.2857V44.6733C34.722 44.3743 34.4796 44.1319 34.1806 44.1316ZM39.0299 44.1319C38.7309 44.1319 38.4885 44.3743 38.4885 44.6733V48.2857C38.4885 48.5847 38.7309 48.8271 39.0299 48.8271C39.329 48.8271 39.5714 48.5847 39.5714 48.2857V44.6733C39.5714 44.3743 39.329 44.1316 39.0299 44.1319ZM36.6187 46.0788C36.3197 46.0788 36.0773 46.3212 36.0773 46.6202V50.9531C36.0773 51.2521 36.3197 51.4945 36.6187 51.4945C36.9177 51.4945 37.1604 51.2521 37.1604 50.9531V46.6202C37.1601 46.3212 36.9177 46.0788 36.6187 46.0788ZM41.6865 50.8066H41.6861C40.0357 50.8066 38.6129 51.782 37.9628 53.1878C37.5855 53.0465 37.1768 52.9694 36.7502 52.9694C36.2219 52.9694 35.7208 53.0877 35.2727 53.2994C34.6475 51.8338 33.1935 50.8067 31.4995 50.8067C29.6015 50.8067 28.0047 52.0964 27.5375 53.8473C27.369 53.8332 27.1985 53.8262 27.0265 53.8262C24.3156 53.8262 22.0198 55.6043 21.2421 58.0577C21.127 58.4217 21.0448 58.8003 21 59.1904H22.1404C22.1967 58.7958 22.2993 58.4162 22.4433 58.0577C23.1714 56.2407 24.9491 54.9573 27.0265 54.9573C27.1522 54.9573 27.2766 54.9618 27.3997 54.9711C27.7767 54.9996 28.1419 55.0699 28.4905 55.178C28.4825 55.0888 28.4787 54.9986 28.4787 54.9071C28.4787 54.6036 28.5234 54.3104 28.6066 54.0341C28.9811 52.791 30.1346 51.8861 31.4994 51.8861C32.8253 51.8861 33.9516 52.7403 34.3584 53.9279C34.4636 54.2349 34.5205 54.5643 34.5205 54.9071C34.5205 55.0801 34.5062 55.25 34.478 55.4153C34.6996 54.9215 35.0773 54.5134 35.548 54.2535C35.9043 54.0565 36.3142 53.9443 36.7502 53.9443H36.7505C37.0722 53.9443 37.3798 54.0053 37.6622 54.1166C38.0559 54.2717 38.4003 54.5241 38.6661 54.8438C38.6741 54.4463 38.7591 54.068 38.9066 53.7223C39.3674 52.6427 40.4384 51.8861 41.6865 51.8861C42.9615 51.8861 44.0521 52.6763 44.4956 53.7933H44.4952C44.6321 54.1381 44.7073 54.5138 44.7073 54.9071V54.9202C45.0478 54.7894 45.4063 54.6948 45.7782 54.642C46.0072 54.6094 46.2416 54.5925 46.4799 54.5925C48.6938 54.5925 50.5672 56.0498 51.193 58.0577C51.3055 58.4191 51.3778 58.7987 51.4044 59.1904H52.5377C52.5163 58.8022 52.4584 58.4233 52.3673 58.0577C51.7101 55.4175 49.3235 53.4613 46.4799 53.4613C46.1639 53.4613 45.8534 53.4856 45.5503 53.532C44.9852 51.9439 43.4687 50.8067 41.6866 50.8067L41.6865 50.8066Z" fill="#2965D5" stroke="#2965D5" stroke-width="0.4"/>
</svg>
