<svg width="26" height="26" viewBox="0 0 26 26" fill="none" xmlns="http://www.w3.org/2000/svg">
<path d="M17.8751 4.33329C17.8751 3.13675 16.905 2.16663 15.7084 2.16663C14.5119 2.16663 13.5417 3.13675 13.5417 4.33329C13.5417 5.01254 13.5417 9.60967 13.5417 10.2916C13.5417 11.4882 14.5119 12.4583 15.7084 12.4583C16.905 12.4583 17.8751 11.4882 17.8751 10.2916C17.8751 9.60967 17.8751 5.01254 17.8751 4.33329Z" fill="#33D375"/>
<path d="M23.2916 10.2917C23.2916 11.4882 22.3215 12.4583 21.1249 12.4583C20.4776 12.4583 18.9583 12.4583 18.9583 12.4583C18.9583 12.4583 18.9583 10.8409 18.9583 10.2917C18.9583 9.09512 19.9284 8.125 21.1249 8.125C22.3215 8.125 23.2916 9.09512 23.2916 10.2917Z" fill="#33D375"/>
<path d="M4.33341 7.58337C3.13687 7.58337 2.16675 8.5535 2.16675 9.75004C2.16675 10.9466 3.13687 11.9167 4.33341 11.9167C5.01266 11.9167 9.60979 11.9167 10.2917 11.9167C11.4883 11.9167 12.4584 10.9466 12.4584 9.75004C12.4584 8.5535 11.4883 7.58337 10.2917 7.58337C9.60979 7.58337 5.01266 7.58337 4.33341 7.58337Z" fill="#40C4FF"/>
<path d="M10.2917 2.16663C11.4882 2.16663 12.4583 3.13675 12.4583 4.33329C12.4583 4.98058 12.4583 6.49996 12.4583 6.49996C12.4583 6.49996 10.8409 6.49996 10.2917 6.49996C9.09512 6.49996 8.125 5.52983 8.125 4.33329C8.125 3.13675 9.09512 2.16663 10.2917 2.16663Z" fill="#40C4FF"/>
<path d="M7.58325 21.1282C7.58325 22.3231 8.55338 23.2916 9.74992 23.2916C10.9465 23.2916 11.9166 22.3231 11.9166 21.1282C11.9166 20.4501 11.9166 15.8594 11.9166 15.1786C11.9166 13.9836 10.9465 13.0151 9.74992 13.0151C8.55338 13.0151 7.58325 13.9836 7.58325 15.1786C7.58325 15.8594 7.58325 20.4501 7.58325 21.1282Z" fill="#E91E63"/>
<path d="M2.16675 15.1786C2.16675 13.9836 3.13687 13.0151 4.33341 13.0151C4.98071 13.0151 6.50008 13.0151 6.50008 13.0151C6.50008 13.0151 6.50008 14.6298 6.50008 15.1786C6.50008 16.3735 5.52996 17.342 4.33341 17.342C3.13687 17.342 2.16675 16.3735 2.16675 15.1786Z" fill="#E91E63"/>
<path d="M21.125 17.875C22.3215 17.875 23.2917 16.9048 23.2917 15.7083C23.2917 14.5118 22.3215 13.5416 21.125 13.5416C20.4458 13.5416 15.8486 13.5416 15.1667 13.5416C13.9701 13.5416 13 14.5118 13 15.7083C13 16.9048 13.9701 17.875 15.1667 17.875C15.8481 17.875 20.4458 17.875 21.125 17.875Z" fill="#FFC107"/>
<path d="M15.1667 23.2917C13.9701 23.2917 13 22.3216 13 21.125C13 20.4777 13 18.9584 13 18.9584C13 18.9584 14.6174 18.9584 15.1667 18.9584C16.3632 18.9584 17.3333 19.9285 17.3333 21.125C17.3333 22.3216 16.3632 23.2917 15.1667 23.2917Z" fill="#FFC107"/>
</svg>
