<svg width="26" height="20" viewBox="0 0 26 20" fill="none" xmlns="http://www.w3.org/2000/svg">
<path d="M25.5 -0.000244141C24.525 0.578506 22.5688 1.36726 21.4188 1.59476C21.385 1.60351 21.3575 1.61476 21.325 1.62351C20.3088 0.621006 18.9163 -0.000244141 17.375 -0.000244141C14.2688 -0.000244141 11.75 2.51851 11.75 5.62476C11.75 5.78851 11.7362 6.08976 11.75 6.24976C7.55875 6.24976 4.36875 4.05476 2.08125 1.24976C1.8325 1.87476 1.72375 2.86226 1.72375 3.78976C1.72375 5.54101 3.0925 7.26101 5.22375 8.32726C4.83125 8.42851 4.39875 8.50101 3.94875 8.50101C3.2225 8.50101 2.45375 8.30976 1.75 7.72976C1.75 7.75101 1.75 7.77101 1.75 7.79351C1.75 10.241 4.3475 11.9073 6.6575 12.371C6.18875 12.6473 5.24375 12.6748 4.7825 12.6748C4.4575 12.6748 3.3075 12.526 3 12.4685C3.6425 14.4748 5.96 15.6023 8.16875 15.6423C6.44125 16.9973 5.2425 17.4998 1.705 17.4998H0.5C2.735 18.9323 5.58125 20.001 8.43375 20.001C17.7213 20.001 23 12.9223 23 6.24976C23 6.14226 22.9975 5.91726 22.9938 5.69101C22.9938 5.66851 23 5.64726 23 5.62476C23 5.59101 22.99 5.55851 22.99 5.52476C22.9862 5.35476 22.9825 5.19601 22.9788 5.11351C23.9662 4.40101 24.8225 3.51226 25.5 2.49976C24.5938 2.90226 23.6213 3.17226 22.6 3.29476C23.6425 2.66976 25.1238 1.17976 25.5 -0.000244141Z" fill="#2A65D5"/>
</svg>
